<svg width="850" height="550" viewBox="0 0 850 550" fill="none" xmlns="http://www.w3.org/2000/svg">
<rect width="850" height="550" fill="#F7F1D7"/>
<path d="M283.338 315V228.6H316.998C322.158 228.6 326.558 229.66 330.198 231.78C333.878 233.9 336.678 236.7 338.598 240.18C340.558 243.62 341.538 247.34 341.538 251.34C341.538 256.02 340.338 260.12 337.938 263.64C335.538 267.16 332.298 269.58 328.218 270.9L328.098 267.96C333.658 269.44 337.978 272.16 341.057 276.12C344.138 280.08 345.678 284.8 345.678 290.28C345.678 295.32 344.638 299.68 342.558 303.36C340.518 307.04 337.558 309.9 333.678 311.94C329.838 313.98 325.278 315 319.998 315H283.338ZM294.138 304.8H317.958C321.158 304.8 324.018 304.22 326.538 303.06C329.058 301.86 331.038 300.18 332.478 298.02C333.958 295.86 334.698 293.26 334.698 290.22C334.698 287.3 334.038 284.68 332.718 282.36C331.438 280.04 329.618 278.2 327.258 276.84C324.938 275.44 322.238 274.74 319.158 274.74H294.138V304.8ZM294.138 264.66H316.878C319.438 264.66 321.738 264.12 323.778 263.04C325.858 261.92 327.498 260.36 328.698 258.36C329.938 256.36 330.558 254.02 330.558 251.34C330.558 247.62 329.298 244.58 326.778 242.22C324.258 239.86 320.958 238.68 316.878 238.68H294.138V264.66ZM358.834 315V228.6H369.514V315H358.834ZM387.517 315V228.6H421.177C426.337 228.6 430.737 229.66 434.377 231.78C438.057 233.9 440.857 236.7 442.777 240.18C444.737 243.62 445.717 247.34 445.717 251.34C445.717 256.02 444.517 260.12 442.117 263.64C439.717 267.16 436.477 269.58 432.397 270.9L432.277 267.96C437.837 269.44 442.157 272.16 445.237 276.12C448.317 280.08 449.857 284.8 449.857 290.28C449.857 295.32 448.817 299.68 446.737 303.36C444.697 307.04 441.737 309.9 437.857 311.94C434.017 313.98 429.457 315 424.177 315H387.517ZM398.317 304.8H422.137C425.337 304.8 428.197 304.22 430.717 303.06C433.237 301.86 435.217 300.18 436.657 298.02C438.137 295.86 438.877 293.26 438.877 290.22C438.877 287.3 438.217 284.68 436.897 282.36C435.617 280.04 433.797 278.2 431.437 276.84C429.117 275.44 426.417 274.74 423.337 274.74H398.317V304.8ZM398.317 264.66H421.057C423.617 264.66 425.917 264.12 427.957 263.04C430.037 261.92 431.677 260.36 432.877 258.36C434.117 256.36 434.737 254.02 434.737 251.34C434.737 247.62 433.477 244.58 430.957 242.22C428.437 239.86 425.137 238.68 421.057 238.68H398.317V264.66ZM463.014 315V228.6H473.694V304.86H513.774V315H463.014ZM557.1 316.8C548.5 316.8 541.2 314.9 535.2 311.1C529.2 307.3 524.62 302.02 521.46 295.26C518.34 288.5 516.78 280.68 516.78 271.8C516.78 262.92 518.34 255.1 521.46 248.34C524.62 241.58 529.2 236.3 535.2 232.5C541.2 228.7 548.5 226.8 557.1 226.8C565.74 226.8 573.06 228.7 579.06 232.5C585.06 236.3 589.62 241.58 592.74 248.34C595.86 255.1 597.42 262.92 597.42 271.8C597.42 280.68 595.86 288.5 592.74 295.26C589.62 302.02 585.06 307.3 579.06 311.1C573.06 314.9 565.74 316.8 557.1 316.8ZM557.1 306.6C563.54 306.64 568.9 305.2 573.18 302.28C577.5 299.32 580.72 295.22 582.84 289.98C585 284.74 586.08 278.68 586.08 271.8C586.08 264.88 585 258.82 582.84 253.62C580.72 248.42 577.5 244.36 573.18 241.44C568.9 238.52 563.54 237.04 557.1 237C550.66 236.96 545.3 238.4 541.02 241.32C536.78 244.24 533.58 248.32 531.42 253.56C529.26 258.8 528.16 264.88 528.12 271.8C528.08 278.68 529.14 284.72 531.3 289.92C533.46 295.12 536.68 299.2 540.96 302.16C545.28 305.08 550.66 306.56 557.1 306.6ZM629.387 315V238.74H599.927V228.6H669.527V238.74H640.067V315H629.387ZM679.08 315V228.6H733.68V238.74H689.76V265.8H726.48V275.94H689.76V304.86H733.68V315H679.08ZM748.103 315V228.6H758.783V269.16L796.583 228.6H810.023L770.783 270.54L813.083 315H799.283L758.783 272.76V315H748.103Z" fill="#0CA45A"/>
<g clip-path="url(#clip0_2001_266)">
<path d="M78.389 172.969C81.4352 172.793 86.4437 174.9 89.3107 176.054C108.723 183.865 125.736 194.513 142.131 207.387C158.466 194.629 175.331 183.909 194.679 176.141C197.748 175.106 201.058 173.375 204.326 173.121C210.129 172.671 209.438 177.864 209.471 181.64C213.021 180.074 219.63 176.944 222.99 180.137C224.821 181.877 224.42 184.974 224.387 187.313C224.933 187.092 225.482 186.876 226.033 186.666C232.641 184.165 239.456 185.394 242.215 192.796C242.645 193.95 242.813 195.021 242.824 196.247C242.894 204.057 242.857 211.87 242.859 219.681L242.874 264.892L242.87 301.093C242.876 307.61 242.938 314.219 242.807 320.734C242.768 322.696 242.011 324.958 241.144 326.713C237.616 333.853 232.129 334.765 225.486 337.143L213.994 341.29L176.999 354.55C173.651 355.773 170.292 356.974 166.926 358.149C165.136 358.777 163.248 359.43 161.472 360.099C160.497 360.598 159.734 361.495 158.851 362.125C149.503 368.801 135.205 369.087 125.83 362.304C124.952 361.669 123.337 360.341 122.377 359.968C119.049 358.677 115.399 357.48 112.037 356.299L69.7109 341.142L57.3796 336.795C54.7074 335.851 51.2875 334.813 48.8644 333.42C44.7341 331.004 41.4457 325.632 41.355 320.812C41.2407 314.754 41.3172 308.617 41.3203 302.556L41.329 267.13L41.3552 218.992C41.3631 214.156 40.7991 195.966 42.086 192.475C43.0582 189.817 45.0468 187.657 47.6111 186.475C51.9926 184.465 55.7276 185.721 59.9304 187.269C59.9277 185.598 59.8212 183.436 60.4003 181.887C62.6743 175.808 70.7605 180.051 74.8296 181.673C74.8379 177.724 73.837 174.484 78.389 172.969Z" fill="#366351"/>
<path d="M45.889 196.495C45.9575 194.474 46.3851 192.95 47.8629 191.51C48.6922 190.702 50.7148 189.78 51.8439 189.906C56.7835 190.458 62.2238 192.899 66.8768 194.604L82.6502 200.324C91.2167 203.301 99.7573 206.353 108.271 209.479C111.879 210.784 116.229 212.208 119.738 213.65L119.721 217.61C119.412 247.354 119.674 277.607 119.698 307.392C119.727 315.185 119.715 322.979 119.659 330.772C119.568 337.935 119.32 347.694 119.984 354.616C113.652 352.482 107.157 349.994 100.843 347.713L73.6819 337.993L59.1094 332.745C56.6919 331.875 53.8115 330.979 51.5245 329.871C44.3597 326.396 45.7838 317.381 45.7845 310.811L45.7755 293.58L45.7903 237.096L45.7938 208.516C45.7899 206.961 45.6724 197.501 45.889 196.495Z" fill="#7AB28F"/>
<path d="M45.889 196.495C45.9575 194.474 46.3851 192.95 47.8629 191.51C48.6922 190.702 50.7148 189.78 51.8439 189.906C56.7835 190.458 62.2238 192.899 66.8768 194.604L82.6502 200.324C91.2167 203.301 99.7573 206.353 108.271 209.479C111.879 210.784 116.229 212.208 119.738 213.65L119.721 217.61C118.197 216.862 114.703 215.816 112.983 215.237C109.503 214.065 106.039 212.849 102.59 211.591L56.8773 195.425C54.1369 194.474 50.9275 192.932 48.202 194.736C47.5621 195.159 46.4107 196.354 45.889 196.495Z" fill="#B1CCB8"/>
<path d="M59.4032 213.733C60.2313 213.694 60.8394 213.699 61.6377 213.983C74.5624 218.572 87.5117 223.096 100.455 227.634C102.207 228.248 104.383 228.916 105.844 230.124C106.135 230.365 106.547 231.65 106.566 232.063C106.665 234.125 106.639 236.209 106.641 238.275L106.647 250.117V261.615C106.647 263.519 106.676 265.532 106.584 267.436C106.542 268.306 105.754 268.793 105.097 269.278C103.079 269.378 96.4998 266.788 94.2561 266.006C89.3918 264.347 84.54 262.652 79.701 260.921C73.7368 258.792 67.6953 256.721 61.7354 254.577C61.0558 254.264 59.3913 253.598 58.9243 253.074C57.6141 251.604 57.9906 247.816 57.9873 245.977L57.9788 236.228L57.9888 222.863C57.9961 220.546 57.9852 218.172 58.0694 215.856C58.112 214.683 58.5079 214.499 59.4032 213.733Z" fill="#B0CCB8"/>
<path d="M65.195 222.969C65.6786 222.996 66.1216 223.032 66.5851 223.182C69.7737 224.221 99.1652 234.669 99.96 235.417C100.498 235.923 100.877 236.605 100.823 237.362C100.761 238.223 100.293 238.707 99.6835 239.26C99.1049 239.283 98.6296 239.25 98.0712 239.086C94.2645 237.968 65.9717 227.921 64.9491 226.927C64.3867 226.381 63.9742 225.691 64.0224 224.884C64.0777 223.963 64.5503 223.55 65.195 222.969Z" fill="#366351"/>
<path d="M164.501 213.516C168.14 211.959 174.159 210.056 178.026 208.688L205.575 198.927L220.532 193.525C227.004 191.136 237.558 185.452 238.439 196.977L238.449 284.057C238.501 292.486 238.499 300.917 238.439 309.346C238.431 312.69 238.716 318.346 238.292 321.479C237.969 323.97 236.847 326.29 235.096 328.087C232.934 330.316 224.05 333.099 220.765 334.28L202.401 340.867C189.766 345.355 176.76 350.305 164.138 354.569C164.872 349.679 164.634 344.424 164.626 339.439L164.61 318.991L164.632 250.113L164.622 228.575C164.616 225.461 164.456 220.792 164.62 217.777C164.597 216.357 164.556 214.936 164.501 213.516Z" fill="#478660"/>
<path d="M164.501 213.516C168.14 211.959 174.159 210.056 178.026 208.688L205.575 198.927L220.532 193.525C227.004 191.136 237.558 185.452 238.439 196.977C236.127 194.386 234.214 193.087 230.701 194.344C224.497 196.564 218.193 198.728 211.985 200.912L172.558 214.801C170.587 215.491 168.628 216.207 166.676 216.947C166.454 217.032 164.634 217.774 164.62 217.777C164.597 216.357 164.557 214.936 164.501 213.516Z" fill="#7AB28F"/>
<path d="M223.969 213.568C227.301 213.64 226.162 218.439 226.185 220.808L226.206 240.69C226.202 244.022 226.229 247.354 226.179 250.685C226.158 252.066 225.231 253.597 223.944 254.123C221.497 255.126 218.956 255.984 216.455 256.856L201.8 261.925L188.224 266.703C185.92 267.519 182.543 268.812 180.275 269.38C179.818 269.39 179.466 269.342 179.055 269.145C178.556 268.905 178.229 268.485 178.053 267.965C177.573 266.547 177.597 236.712 177.757 233.418C177.799 232.555 177.847 231.408 178.281 230.653C178.639 230.029 179.2 229.415 179.853 229.103C181.496 228.319 183.371 227.8 185.097 227.205C188.359 226.093 191.614 224.962 194.862 223.813C204.176 220.505 214.605 216.517 223.969 213.568Z" fill="#B0CCB8"/>
<path d="M218.041 223.02C220.064 222.909 220.859 224.914 220.083 225.861C218.152 228.221 209.578 230.703 206.933 231.649L185.458 239.377C182.298 239.563 182.72 235.947 184.61 235.137C188.128 233.63 192.043 232.332 195.652 231.042L218.041 223.02Z" fill="#366351"/>
<path d="M129.182 220.197C139.704 222.977 150.78 223.805 160.048 216.996C160.152 223.151 159.988 229.614 160.187 235.669L160.212 240.478C160.16 244.433 160.098 248.266 160.212 252.223C160.214 253.693 160.27 255.594 160.187 257.03L160.133 303.814C160.127 312.404 159.919 321.97 160.191 330.492C160.194 332.088 160.243 333.888 160.189 335.467C160.167 340.127 160.098 344.804 160.191 349.463C160.483 364.098 138.561 365.498 129.168 359.43C128.4 358.864 127.617 358.244 126.925 357.586C125.671 356.405 124.768 354.9 124.316 353.234C123.669 350.781 124.052 338.31 123.972 334.806L124.004 333.81C123.887 331.33 124.002 327.799 124.003 325.244L124.008 308.097L123.973 256.237C124.004 255.302 123.972 254.153 123.97 253.201L123.996 240.464L124 235.798L123.987 216.931C125.899 218.431 127.006 219.136 129.182 220.197Z" fill="#478660"/>
<path d="M129.182 220.197C139.704 222.977 150.78 223.805 160.048 216.996C160.152 223.151 159.988 229.614 160.187 235.669L160.212 240.478C160.16 244.433 160.098 248.266 160.212 252.223C160.214 253.693 160.27 255.594 160.187 257.03C150.276 262.394 140.008 262.593 129.296 259.489L129.228 259.4C128.915 257.859 128.953 256.398 129.05 254.842C127.894 254.4 125.022 252.643 124.185 252.749L123.97 253.201L123.996 240.464L124 235.798L123.987 216.931C125.899 218.431 127.006 219.136 129.182 220.197Z" fill="#478660"/>
<path d="M129.182 220.197C139.704 222.977 150.78 223.805 160.048 216.996C160.152 223.151 159.988 229.614 160.187 235.669C151.41 240.564 141.052 241.75 131.403 238.964C130.653 238.736 129.907 238.497 129.165 238.247L129.101 238.157C127.343 237.524 125.66 236.322 124 235.798L123.987 216.931C125.899 218.431 127.006 219.136 129.182 220.197Z" fill="#478660"/>
<path d="M123.987 216.931C125.899 218.431 127.006 219.136 129.182 220.197C129.168 226.091 129.25 232.288 129.101 238.157C127.343 237.524 125.66 236.322 124 235.798L123.987 216.931Z" fill="#7AB28F"/>
<path d="M160.187 235.669L160.212 240.478C151.75 245.39 140.804 246.164 131.479 243.657C130.753 243.46 130.028 243.257 129.306 243.046L129.222 242.988C129.061 241.792 129.151 239.531 129.165 238.247C129.907 238.497 130.653 238.736 131.403 238.964C141.052 241.75 151.41 240.564 160.187 235.669Z" fill="#B0CCB8"/>
<path d="M129.05 254.842C129.719 255.117 130.28 255.275 130.983 255.441C141.168 257.841 151.085 257.657 160.212 252.223C160.214 253.693 160.27 255.594 160.187 257.03C150.276 262.394 140.008 262.593 129.296 259.489L129.228 259.4C128.915 257.859 128.953 256.398 129.05 254.842Z" fill="#B0CCB8"/>
<path d="M124 235.798C125.66 236.322 127.343 237.524 129.101 238.157L129.165 238.247C129.151 239.531 129.061 241.792 129.222 242.988L129.306 243.046C128.943 243.982 129.162 252.85 129.05 254.842C127.894 254.4 125.022 252.643 124.185 252.749L123.97 253.201L123.996 240.464L124 235.798Z" fill="#7AB28F"/>
<path d="M124 235.798C125.66 236.322 127.343 237.524 129.101 238.157L129.165 238.247C129.151 239.531 129.061 241.792 129.222 242.988C127.385 242.203 125.769 241.37 123.996 240.464L124 235.798Z" fill="#EABB80"/>
<path d="M123.972 334.806C124.613 336.213 127.11 336.949 128.573 337.496L129.056 337.676L129.167 337.778C139.168 341.238 150.827 340.378 160.189 335.467C160.167 340.127 160.098 344.804 160.191 349.463C160.483 364.098 138.561 365.498 129.168 359.43C128.4 358.864 127.617 358.244 126.925 357.586C125.671 356.405 124.768 354.9 124.316 353.234C123.669 350.781 124.052 338.31 123.972 334.806Z" fill="#478660"/>
<path d="M123.972 334.806C124.613 336.213 127.11 336.949 128.573 337.496L129.056 337.676L129.167 337.778L129.168 359.43C128.4 358.864 127.617 358.244 126.925 357.586C125.671 356.405 124.768 354.9 124.316 353.234C123.669 350.781 124.052 338.31 123.972 334.806Z" fill="#7AB28F"/>
<path d="M123.97 253.201L124.185 252.749C125.022 252.643 127.894 254.4 129.05 254.842C128.953 256.398 128.915 257.859 129.228 259.4L129.296 259.489C129.046 260.962 129.143 265.432 129.147 267.109L129.172 281.818L129.133 315.547C129.124 321.297 129 327.416 129.105 333.12C129.114 334.626 129.149 336.178 129.056 337.676L128.573 337.496C127.11 336.949 124.613 336.213 123.972 334.806L124.004 333.81C123.887 331.33 124.002 327.799 124.003 325.244L124.008 308.097L123.973 256.237C124.004 255.302 123.972 254.152 123.97 253.201Z" fill="#7AB28F"/>
<path d="M124.177 330.696C125.57 331.458 127.647 332.683 129.105 333.12C129.114 334.626 129.149 336.178 129.056 337.676L128.573 337.496C127.11 336.949 124.613 336.213 123.972 334.806L124.004 333.81C124.096 332.896 124.129 331.63 124.177 330.696Z" fill="#EABB80"/>
<path d="M123.97 253.201L124.185 252.749C125.022 252.643 127.894 254.4 129.05 254.842C128.953 256.398 128.915 257.859 129.228 259.4C127.617 258.806 124.492 257.978 123.973 256.237C124.004 255.302 123.972 254.152 123.97 253.201Z" fill="#EABB80"/>
<path d="M129.105 333.12C130.538 333.634 132.005 334.048 133.494 334.359C142.154 336.234 152.599 335.397 160.191 330.492C160.194 332.088 160.243 333.888 160.189 335.467C150.827 340.378 139.168 341.238 129.167 337.778L129.056 337.676C129.149 336.178 129.114 334.626 129.105 333.12Z" fill="#B0CCB8"/>
<path d="M79.1983 177.281C84.1365 178.425 90.4377 181.103 95.0724 183.178C107.989 188.959 119.907 196.403 131.394 204.626C133.526 206.077 135.466 207.716 137.449 209.356C138.9 210.556 140.476 212.054 142.06 213.023C144.655 211.509 147.058 209.12 149.478 207.256C153.709 204.053 158.048 200.996 162.487 198.091C164.269 198.256 166.745 198.341 168.422 198.581C167.487 204.408 174.98 200.034 176.995 199.308C183.02 197.141 215.95 182.299 219.705 183.494C220.229 184.241 220.046 187.903 220.037 189C206.147 194.18 191.974 198.916 178.046 204.025C172.304 206.131 166.42 208.266 160.564 209.992C159.742 211.003 158.268 212.784 157.225 213.592C152.331 217.392 144.112 218.118 138.193 217.532C134.553 217.173 129.556 215.925 126.785 213.488C125.916 212.724 124.646 211.132 123.879 210.192C122.185 209.484 118.396 208.379 116.507 207.737L102.225 202.723L64.4191 189.027C64.3881 187.58 64.284 185.154 64.5285 183.805C64.8029 183.48 64.9821 183.331 65.5663 183.425C68.3568 183.877 71.9659 185.286 74.5967 186.227C83.4242 189.385 91.9503 192.987 100.626 196.527C104.745 198.136 108.784 200.089 112.953 201.546C114.891 202.223 116.423 200.844 115.491 198.873C114.542 196.864 112.627 196.863 110.838 196.124C108.992 195.361 107.171 194.577 105.34 193.804C96.7335 190.089 88.0323 186.599 79.2453 183.337C79.1116 181.321 79.096 179.299 79.1983 177.281Z" fill="#B0CCB8"/>
<path d="M162.487 198.091C172.63 191.539 182.702 185.844 193.874 181.212C197.249 179.812 201.361 177.944 204.987 177.468C205.135 179.511 205.149 181.261 205.155 183.298C193.242 187.568 181.631 192.693 169.886 197.417C169.319 197.645 168.83 198.138 168.422 198.581C166.745 198.341 164.269 198.256 162.487 198.091Z" fill="#B0CCB8"/>
</g>
<defs>
<clipPath id="clip0_2001_266">
<rect width="202.032" height="194.758" fill="white" transform="translate(41.0611 172.621)"/>
</clipPath>
</defs>
</svg>
