<svg width="800" height="450" viewBox="0 0 800 450" fill="none" xmlns="http://www.w3.org/2000/svg">
<rect width="800" height="450" fill="#F7F1D7"/>
<path d="M251.838 271V184.6H285.498C290.658 184.6 295.058 185.66 298.698 187.78C302.378 189.9 305.178 192.7 307.098 196.18C309.058 199.62 310.038 203.34 310.038 207.34C310.038 212.02 308.838 216.12 306.438 219.64C304.038 223.16 300.798 225.58 296.718 226.9L296.598 223.96C302.158 225.44 306.478 228.16 309.557 232.12C312.638 236.08 314.178 240.8 314.178 246.28C314.178 251.32 313.138 255.68 311.058 259.36C309.018 263.04 306.058 265.9 302.178 267.94C298.338 269.98 293.778 271 288.498 271H251.838ZM262.638 260.8H286.458C289.658 260.8 292.518 260.22 295.038 259.06C297.558 257.86 299.538 256.18 300.978 254.02C302.458 251.86 303.198 249.26 303.198 246.22C303.198 243.3 302.538 240.68 301.218 238.36C299.938 236.04 298.118 234.2 295.758 232.84C293.438 231.44 290.738 230.74 287.658 230.74H262.638V260.8ZM262.638 220.66H285.378C287.938 220.66 290.238 220.12 292.278 219.04C294.358 217.92 295.998 216.36 297.198 214.36C298.438 212.36 299.058 210.02 299.058 207.34C299.058 203.62 297.798 200.58 295.278 198.22C292.758 195.86 289.458 194.68 285.378 194.68H262.638V220.66ZM327.334 271V184.6H338.014V271H327.334ZM356.017 271V184.6H389.677C394.837 184.6 399.237 185.66 402.877 187.78C406.557 189.9 409.357 192.7 411.277 196.18C413.237 199.62 414.217 203.34 414.217 207.34C414.217 212.02 413.017 216.12 410.617 219.64C408.217 223.16 404.977 225.58 400.897 226.9L400.777 223.96C406.337 225.44 410.657 228.16 413.737 232.12C416.817 236.08 418.357 240.8 418.357 246.28C418.357 251.32 417.317 255.68 415.237 259.36C413.197 263.04 410.237 265.9 406.357 267.94C402.517 269.98 397.957 271 392.677 271H356.017ZM366.817 260.8H390.637C393.837 260.8 396.697 260.22 399.217 259.06C401.737 257.86 403.717 256.18 405.157 254.02C406.637 251.86 407.377 249.26 407.377 246.22C407.377 243.3 406.717 240.68 405.397 238.36C404.117 236.04 402.297 234.2 399.937 232.84C397.617 231.44 394.917 230.74 391.837 230.74H366.817V260.8ZM366.817 220.66H389.557C392.117 220.66 394.417 220.12 396.457 219.04C398.537 217.92 400.177 216.36 401.377 214.36C402.617 212.36 403.237 210.02 403.237 207.34C403.237 203.62 401.977 200.58 399.457 198.22C396.937 195.86 393.637 194.68 389.557 194.68H366.817V220.66ZM431.514 271V184.6H442.194V260.86H482.274V271H431.514ZM525.6 272.8C517 272.8 509.7 270.9 503.7 267.1C497.7 263.3 493.12 258.02 489.96 251.26C486.84 244.5 485.28 236.68 485.28 227.8C485.28 218.92 486.84 211.1 489.96 204.34C493.12 197.58 497.7 192.3 503.7 188.5C509.7 184.7 517 182.8 525.6 182.8C534.24 182.8 541.56 184.7 547.56 188.5C553.56 192.3 558.12 197.58 561.24 204.34C564.36 211.1 565.92 218.92 565.92 227.8C565.92 236.68 564.36 244.5 561.24 251.26C558.12 258.02 553.56 263.3 547.56 267.1C541.56 270.9 534.24 272.8 525.6 272.8ZM525.6 262.6C532.04 262.64 537.4 261.2 541.68 258.28C546 255.32 549.22 251.22 551.34 245.98C553.5 240.74 554.58 234.68 554.58 227.8C554.58 220.88 553.5 214.82 551.34 209.62C549.22 204.42 546 200.36 541.68 197.44C537.4 194.52 532.04 193.04 525.6 193C519.16 192.96 513.8 194.4 509.52 197.32C505.28 200.24 502.08 204.32 499.92 209.56C497.76 214.8 496.66 220.88 496.62 227.8C496.58 234.68 497.64 240.72 499.8 245.92C501.96 251.12 505.18 255.2 509.46 258.16C513.78 261.08 519.16 262.56 525.6 262.6ZM597.887 271V194.74H568.427V184.6H638.027V194.74H608.567V271H597.887ZM647.58 271V184.6H702.18V194.74H658.26V221.8H694.98V231.94H658.26V260.86H702.18V271H647.58ZM716.603 271V184.6H727.283V225.16L765.083 184.6H778.523L739.283 226.54L781.583 271H767.783L727.283 228.76V271H716.603Z" fill="#0CA45A"/>
<g clip-path="url(#clip0_2001_266)">
<path d="M61.0773 127.969C64.0486 127.793 68.9341 129.9 71.7306 131.054C90.6657 138.865 107.261 149.513 123.253 162.387C139.187 149.629 155.637 138.909 174.51 131.141C177.504 130.106 180.733 128.375 183.92 128.121C189.581 127.671 188.906 132.864 188.938 136.64C192.402 135.074 198.848 131.944 202.126 135.137C203.911 136.877 203.52 139.974 203.488 142.313C204.02 142.092 204.556 141.876 205.093 141.666C211.54 139.165 218.187 140.394 220.878 147.796C221.297 148.95 221.461 150.021 221.472 151.247C221.54 159.057 221.504 166.87 221.506 174.681L221.521 219.892L221.517 256.093C221.523 262.61 221.583 269.219 221.455 275.734C221.418 277.696 220.679 279.958 219.833 281.713C216.392 288.853 211.04 289.765 204.56 292.143L193.351 296.29L157.265 309.55C153.998 310.773 150.723 311.974 147.439 313.149C145.693 313.777 143.851 314.43 142.119 315.099C141.168 315.598 140.423 316.495 139.563 317.125C130.444 323.801 116.497 324.087 107.352 317.304C106.496 316.669 104.921 315.341 103.985 314.968C100.738 313.677 97.1776 312.48 93.8986 311.299L52.6123 296.142L40.584 291.795C37.9775 290.851 34.6416 289.813 32.2781 288.42C28.2492 286.004 25.0417 280.632 24.9531 275.812C24.8417 269.754 24.9163 263.617 24.9193 257.556L24.9278 222.13L24.9533 173.992C24.961 169.156 24.4109 150.966 25.6662 147.475C26.6145 144.817 28.5542 142.657 31.0555 141.475C35.3294 139.465 38.9726 140.721 43.0722 142.269C43.0695 140.598 42.9656 138.436 43.5305 136.887C45.7486 130.808 53.6362 135.051 57.6053 136.673C57.6134 132.724 56.637 129.484 61.0773 127.969Z" fill="#366351"/>
<path d="M29.3757 151.495C29.4426 149.474 29.8597 147.95 31.3012 146.51C32.11 145.702 34.083 144.78 35.1844 144.906C40.0026 145.458 45.3092 147.899 49.8479 149.604L65.2337 155.324C73.5897 158.301 81.9205 161.353 90.2251 164.479C93.7449 165.784 97.9872 167.208 101.41 168.65L101.394 172.61C101.093 202.354 101.348 232.607 101.371 262.392C101.4 270.185 101.388 277.979 101.334 285.772C101.245 292.935 101.002 302.694 101.65 309.616C95.4741 307.482 89.1385 304.994 82.9795 302.713L56.4857 292.993L42.2714 287.745C39.9133 286.875 37.1036 285.979 34.8728 284.871C27.884 281.396 29.2731 272.381 29.2739 265.811L29.265 248.58L29.2795 192.096L29.2829 163.516C29.2791 161.961 29.1645 152.501 29.3757 151.495Z" fill="#7AB28F"/>
<path d="M29.3757 151.495C29.4426 149.474 29.8597 147.95 31.3012 146.51C32.11 145.702 34.083 144.78 35.1844 144.906C40.0026 145.458 45.3092 147.899 49.8479 149.604L65.2337 155.324C73.5897 158.301 81.9205 161.353 90.2251 164.479C93.7449 165.784 97.9872 167.208 101.41 168.65L101.394 172.61C99.9068 171.862 96.4991 170.816 94.8208 170.237C91.4272 169.065 88.0477 167.849 84.6832 166.591L40.0941 150.425C37.421 149.474 34.2905 147.932 31.6319 149.736C31.0078 150.159 29.8847 151.354 29.3757 151.495Z" fill="#B1CCB8"/>
<path d="M42.558 168.733C43.3657 168.694 43.9589 168.699 44.7375 168.983C57.3446 173.572 69.9758 178.096 82.6012 182.634C84.3105 183.248 86.4323 183.916 87.8573 185.124C88.1413 185.365 88.5431 186.65 88.5622 187.063C88.6581 189.125 88.6327 191.209 88.6346 193.275L88.641 205.117V216.615C88.6406 218.519 88.6694 220.532 88.5797 222.436C88.5388 223.306 87.7695 223.793 87.129 224.278C85.1602 224.378 78.743 221.788 76.5545 221.006C71.8097 219.347 67.0771 217.652 62.357 215.921C56.5393 213.792 50.6463 211.721 44.8328 209.577C44.1699 209.264 42.5463 208.598 42.0907 208.074C40.8128 206.604 41.18 202.816 41.1768 200.977L41.1685 191.228L41.1783 177.863C41.1854 175.546 41.1747 173.172 41.2569 170.856C41.2984 169.683 41.6846 169.499 42.558 168.733Z" fill="#B0CCB8"/>
<path d="M48.2074 177.969C48.6791 177.996 49.1112 178.032 49.5634 178.182C52.6736 179.221 81.343 189.669 82.1182 190.417C82.6433 190.923 83.0128 191.605 82.9596 192.362C82.8991 193.223 82.4428 193.707 81.8485 194.26C81.2841 194.283 80.8205 194.25 80.2758 194.086C76.5627 192.968 48.965 182.921 47.9676 181.927C47.419 181.381 47.0166 180.691 47.0636 179.884C47.1175 178.963 47.5786 178.55 48.2074 177.969Z" fill="#366351"/>
<path d="M145.073 168.516C148.623 166.959 154.494 165.056 158.266 163.688L185.138 153.927L199.728 148.525C206.041 146.136 216.336 140.452 217.195 151.977L217.204 239.057C217.255 247.486 217.253 255.917 217.195 264.346C217.187 267.69 217.465 273.346 217.052 276.479C216.736 278.97 215.642 281.29 213.934 283.087C211.825 285.316 203.159 288.099 199.955 289.28L182.043 295.867C169.718 300.355 157.032 305.305 144.72 309.569C145.436 304.679 145.203 299.424 145.195 294.439L145.18 273.991L145.201 205.113L145.192 183.575C145.186 180.461 145.03 175.792 145.19 172.777C145.167 171.357 145.128 169.936 145.073 168.516Z" fill="#478660"/>
<path d="M145.073 168.516C148.623 166.959 154.494 165.056 158.266 163.688L185.138 153.927L199.728 148.525C206.041 146.136 216.336 140.452 217.195 151.977C214.939 149.386 213.073 148.087 209.647 149.344C203.595 151.564 197.446 153.728 191.391 155.912L152.933 169.801C151.01 170.491 149.099 171.207 147.195 171.947C146.979 172.032 145.203 172.774 145.19 172.777C145.167 171.357 145.128 169.936 145.073 168.516Z" fill="#7AB28F"/>
<path d="M203.081 168.568C206.33 168.64 205.219 173.439 205.242 175.808L205.262 195.69C205.259 199.022 205.285 202.354 205.236 205.685C205.215 207.066 204.312 208.597 203.056 209.123C200.669 210.126 198.19 210.984 195.751 211.856L181.456 216.925L168.214 221.703C165.966 222.519 162.672 223.812 160.46 224.38C160.014 224.39 159.67 224.342 159.27 224.145C158.783 223.905 158.464 223.485 158.293 222.965C157.825 221.547 157.847 191.712 158.003 188.418C158.045 187.555 158.092 186.408 158.515 185.653C158.864 185.029 159.411 184.415 160.048 184.103C161.651 183.319 163.48 182.8 165.164 182.205C168.346 181.093 171.52 179.962 174.689 178.813C183.774 175.505 193.947 171.517 203.081 168.568Z" fill="#B0CCB8"/>
<path d="M197.298 178.02C199.271 177.909 200.047 179.914 199.29 180.861C197.407 183.221 189.043 185.703 186.463 186.649L165.515 194.377C162.433 194.563 162.845 190.947 164.688 190.137C168.12 188.63 171.939 187.332 175.459 186.042L197.298 178.02Z" fill="#366351"/>
<path d="M110.622 175.197C120.885 177.977 131.69 178.805 140.73 171.996C140.831 178.151 140.672 184.614 140.865 190.669L140.89 195.478C140.839 199.433 140.779 203.266 140.89 207.223C140.891 208.693 140.946 210.594 140.865 212.03L140.813 258.814C140.807 267.404 140.604 276.97 140.869 285.492C140.873 287.088 140.92 288.888 140.867 290.467C140.846 295.127 140.779 299.804 140.869 304.463C141.155 319.098 119.771 320.498 110.608 314.43C109.859 313.864 109.096 313.244 108.42 312.586C107.197 311.405 106.316 309.9 105.876 308.234C105.245 305.781 105.618 293.31 105.54 289.806L105.571 288.81C105.458 286.33 105.569 282.799 105.57 280.244L105.576 263.097L105.541 211.237C105.571 210.302 105.54 209.153 105.538 208.201L105.563 195.464L105.568 190.798L105.555 171.931C107.419 173.431 108.5 174.136 110.622 175.197Z" fill="#478660"/>
<path d="M110.622 175.197C120.885 177.977 131.69 178.805 140.73 171.996C140.831 178.151 140.672 184.614 140.865 190.669L140.89 195.478C140.839 199.433 140.779 203.266 140.89 207.223C140.891 208.693 140.946 210.594 140.865 212.03C131.198 217.394 121.182 217.593 110.733 214.489L110.667 214.4C110.362 212.859 110.399 211.398 110.493 209.842C109.366 209.4 106.565 207.643 105.748 207.749L105.538 208.201L105.563 195.464L105.568 190.798L105.555 171.931C107.42 173.431 108.5 174.136 110.622 175.197Z" fill="#478660"/>
<path d="M110.622 175.197C120.885 177.977 131.69 178.805 140.73 171.996C140.831 178.151 140.672 184.614 140.865 190.669C132.305 195.564 122.201 196.75 112.789 193.964C112.057 193.736 111.33 193.497 110.605 193.247L110.543 193.157C108.829 192.524 107.187 191.322 105.568 190.798L105.555 171.931C107.419 173.431 108.5 174.136 110.622 175.197Z" fill="#478660"/>
<path d="M105.555 171.931C107.419 173.431 108.5 174.136 110.622 175.197C110.609 181.091 110.688 187.288 110.543 193.157C108.829 192.524 107.187 191.322 105.568 190.798L105.555 171.931Z" fill="#7AB28F"/>
<path d="M140.865 190.669L140.89 195.478C132.635 200.39 121.958 201.164 112.863 198.657C112.154 198.46 111.448 198.257 110.743 198.046L110.662 197.988C110.504 196.792 110.592 194.531 110.605 193.247C111.33 193.497 112.057 193.736 112.789 193.964C122.201 196.75 132.305 195.564 140.865 190.669Z" fill="#B0CCB8"/>
<path d="M110.493 209.842C111.146 210.117 111.693 210.275 112.379 210.441C122.314 212.841 131.987 212.657 140.89 207.223C140.891 208.693 140.946 210.594 140.865 212.03C131.198 217.394 121.182 217.593 110.733 214.489L110.667 214.4C110.362 212.859 110.399 211.398 110.493 209.842Z" fill="#B0CCB8"/>
<path d="M105.568 190.798C107.187 191.322 108.829 192.524 110.543 193.157L110.605 193.247C110.592 194.531 110.504 196.792 110.662 197.988L110.743 198.046C110.389 198.982 110.602 207.85 110.493 209.842C109.366 209.4 106.565 207.643 105.748 207.749L105.538 208.201L105.563 195.464L105.568 190.798Z" fill="#7AB28F"/>
<path d="M105.568 190.798C107.187 191.322 108.829 192.524 110.543 193.157L110.605 193.247C110.592 194.531 110.504 196.792 110.662 197.988C108.869 197.203 107.294 196.37 105.563 195.464L105.568 190.798Z" fill="#EABB80"/>
<path d="M105.54 289.806C106.166 291.213 108.601 291.949 110.028 292.496L110.499 292.676L110.608 292.778C120.363 296.238 131.735 295.378 140.867 290.467C140.846 295.127 140.779 299.804 140.869 304.463C141.155 319.098 119.771 320.498 110.608 314.43C109.859 313.864 109.096 313.244 108.42 312.586C107.197 311.405 106.316 309.9 105.876 308.234C105.245 305.781 105.618 293.31 105.54 289.806Z" fill="#478660"/>
<path d="M105.54 289.806C106.166 291.213 108.601 291.949 110.028 292.496L110.499 292.676L110.608 292.778L110.608 314.43C109.859 313.864 109.096 313.244 108.42 312.586C107.197 311.405 106.316 309.9 105.876 308.234C105.245 305.781 105.618 293.31 105.54 289.806Z" fill="#7AB28F"/>
<path d="M105.538 208.201L105.748 207.749C106.565 207.643 109.366 209.4 110.493 209.842C110.399 211.398 110.362 212.859 110.667 214.4L110.733 214.489C110.489 215.962 110.585 220.432 110.589 222.109L110.613 236.818L110.574 270.547C110.566 276.297 110.445 282.416 110.547 288.12C110.556 289.626 110.59 291.178 110.499 292.676L110.028 292.496C108.601 291.949 106.166 291.213 105.54 289.806L105.571 288.81C105.458 286.33 105.569 282.799 105.57 280.244L105.576 263.097L105.541 211.237C105.571 210.302 105.54 209.152 105.538 208.201Z" fill="#7AB28F"/>
<path d="M105.74 285.696C107.099 286.458 109.124 287.683 110.547 288.12C110.556 289.626 110.59 291.178 110.499 292.676L110.028 292.496C108.601 291.949 106.166 291.213 105.54 289.806L105.571 288.81C105.661 287.896 105.693 286.63 105.74 285.696Z" fill="#EABB80"/>
<path d="M105.538 208.201L105.748 207.749C106.565 207.643 109.366 209.4 110.493 209.842C110.399 211.398 110.362 212.859 110.667 214.4C109.096 213.806 106.047 212.978 105.541 211.237C105.571 210.302 105.54 209.152 105.538 208.201Z" fill="#EABB80"/>
<path d="M110.547 288.12C111.945 288.634 113.375 289.048 114.828 289.359C123.276 291.234 133.464 290.397 140.869 285.492C140.873 287.088 140.92 288.888 140.867 290.467C131.735 295.378 120.363 296.238 110.608 292.778L110.499 292.676C110.59 291.178 110.556 289.626 110.547 288.12Z" fill="#B0CCB8"/>
<path d="M61.8666 132.281C66.6835 133.425 72.8299 136.103 77.3507 138.178C89.95 143.959 101.576 151.403 112.78 159.626C114.86 161.077 116.752 162.716 118.686 164.356C120.102 165.556 121.639 167.054 123.184 168.023C125.715 166.509 128.059 164.12 130.419 162.256C134.547 159.053 138.779 155.996 143.109 153.091C144.848 153.256 147.263 153.341 148.898 153.581C147.986 159.408 155.295 155.034 157.261 154.308C163.138 152.141 195.258 137.299 198.921 138.494C199.433 139.241 199.254 142.903 199.245 144C185.696 149.18 171.871 153.916 158.285 159.025C152.685 161.131 146.945 163.266 141.233 164.992C140.431 166.003 138.993 167.784 137.977 168.592C133.203 172.392 125.185 173.118 119.412 172.532C115.861 172.173 110.987 170.925 108.284 168.488C107.437 167.724 106.198 166.132 105.45 165.192C103.798 164.484 100.101 163.379 98.259 162.737L84.3276 157.723L47.4506 144.027C47.4203 142.58 47.3188 140.154 47.5573 138.805C47.8249 138.48 47.9997 138.331 48.5696 138.425C51.2915 138.877 54.812 140.286 57.3781 141.227C65.9887 144.385 74.3054 147.987 82.7679 151.527C86.7857 153.136 90.7258 155.089 94.7924 156.546C96.6825 157.223 98.1763 155.844 97.2678 153.873C96.3418 151.864 94.4741 151.863 92.7287 151.124C90.9282 150.361 89.1522 149.577 87.3662 148.804C78.971 145.089 70.4836 141.599 61.9125 138.337C61.7821 136.321 61.7668 134.299 61.8666 132.281Z" fill="#B0CCB8"/>
<path d="M143.109 153.091C153.002 146.539 162.828 140.844 173.724 136.212C177.017 134.812 181.028 132.944 184.565 132.468C184.709 134.511 184.723 136.261 184.728 138.298C173.108 142.568 161.783 147.693 150.326 152.417C149.773 152.645 149.296 153.138 148.898 153.581C147.263 153.341 144.848 153.256 143.109 153.091Z" fill="#B0CCB8"/>
</g>
<defs>
<clipPath id="clip0_2001_266">
<rect width="197.068" height="194.758" fill="white" transform="translate(24.6665 127.621)"/>
</clipPath>
</defs>
</svg>
