<svg width="850" height="450" viewBox="0 0 850 450" fill="none" xmlns="http://www.w3.org/2000/svg">
<rect width="850" height="450" fill="#F7F1D7"/>
<path d="M283.338 270V183.6H316.998C322.158 183.6 326.558 184.66 330.198 186.78C333.878 188.9 336.678 191.7 338.598 195.18C340.558 198.62 341.538 202.34 341.538 206.34C341.538 211.02 340.338 215.12 337.938 218.64C335.538 222.16 332.298 224.58 328.218 225.9L328.098 222.96C333.658 224.44 337.978 227.16 341.057 231.12C344.138 235.08 345.678 239.8 345.678 245.28C345.678 250.32 344.638 254.68 342.558 258.36C340.518 262.04 337.558 264.9 333.678 266.94C329.838 268.98 325.278 270 319.998 270H283.338ZM294.138 259.8H317.958C321.158 259.8 324.018 259.22 326.538 258.06C329.058 256.86 331.038 255.18 332.478 253.02C333.958 250.86 334.698 248.26 334.698 245.22C334.698 242.3 334.038 239.68 332.718 237.36C331.438 235.04 329.618 233.2 327.258 231.84C324.938 230.44 322.238 229.74 319.158 229.74H294.138V259.8ZM294.138 219.66H316.878C319.438 219.66 321.738 219.12 323.778 218.04C325.858 216.92 327.498 215.36 328.698 213.36C329.938 211.36 330.558 209.02 330.558 206.34C330.558 202.62 329.298 199.58 326.778 197.22C324.258 194.86 320.958 193.68 316.878 193.68H294.138V219.66ZM358.834 270V183.6H369.514V270H358.834ZM387.517 270V183.6H421.177C426.337 183.6 430.737 184.66 434.377 186.78C438.057 188.9 440.857 191.7 442.777 195.18C444.737 198.62 445.717 202.34 445.717 206.34C445.717 211.02 444.517 215.12 442.117 218.64C439.717 222.16 436.477 224.58 432.397 225.9L432.277 222.96C437.837 224.44 442.157 227.16 445.237 231.12C448.317 235.08 449.857 239.8 449.857 245.28C449.857 250.32 448.817 254.68 446.737 258.36C444.697 262.04 441.737 264.9 437.857 266.94C434.017 268.98 429.457 270 424.177 270H387.517ZM398.317 259.8H422.137C425.337 259.8 428.197 259.22 430.717 258.06C433.237 256.86 435.217 255.18 436.657 253.02C438.137 250.86 438.877 248.26 438.877 245.22C438.877 242.3 438.217 239.68 436.897 237.36C435.617 235.04 433.797 233.2 431.437 231.84C429.117 230.44 426.417 229.74 423.337 229.74H398.317V259.8ZM398.317 219.66H421.057C423.617 219.66 425.917 219.12 427.957 218.04C430.037 216.92 431.677 215.36 432.877 213.36C434.117 211.36 434.737 209.02 434.737 206.34C434.737 202.62 433.477 199.58 430.957 197.22C428.437 194.86 425.137 193.68 421.057 193.68H398.317V219.66ZM463.014 270V183.6H473.694V259.86H513.774V270H463.014ZM557.1 271.8C548.5 271.8 541.2 269.9 535.2 266.1C529.2 262.3 524.62 257.02 521.46 250.26C518.34 243.5 516.78 235.68 516.78 226.8C516.78 217.92 518.34 210.1 521.46 203.34C524.62 196.58 529.2 191.3 535.2 187.5C541.2 183.7 548.5 181.8 557.1 181.8C565.74 181.8 573.06 183.7 579.06 187.5C585.06 191.3 589.62 196.58 592.74 203.34C595.86 210.1 597.42 217.92 597.42 226.8C597.42 235.68 595.86 243.5 592.74 250.26C589.62 257.02 585.06 262.3 579.06 266.1C573.06 269.9 565.74 271.8 557.1 271.8ZM557.1 261.6C563.54 261.64 568.9 260.2 573.18 257.28C577.5 254.32 580.72 250.22 582.84 244.98C585 239.74 586.08 233.68 586.08 226.8C586.08 219.88 585 213.82 582.84 208.62C580.72 203.42 577.5 199.36 573.18 196.44C568.9 193.52 563.54 192.04 557.1 192C550.66 191.96 545.3 193.4 541.02 196.32C536.78 199.24 533.58 203.32 531.42 208.56C529.26 213.8 528.16 219.88 528.12 226.8C528.08 233.68 529.14 239.72 531.3 244.92C533.46 250.12 536.68 254.2 540.96 257.16C545.28 260.08 550.66 261.56 557.1 261.6ZM629.387 270V193.74H599.927V183.6H669.527V193.74H640.067V270H629.387ZM679.08 270V183.6H733.68V193.74H689.76V220.8H726.48V230.94H689.76V259.86H733.68V270H679.08ZM748.103 270V183.6H758.783V224.16L796.583 183.6H810.023L770.783 225.54L813.083 270H799.283L758.783 227.76V270H748.103Z" fill="#0CA45A"/>
<g clip-path="url(#clip0_2001_266)">
<path d="M78.389 127.969C81.4352 127.793 86.4437 129.9 89.3107 131.054C108.723 138.865 125.736 149.513 142.131 162.387C158.466 149.629 175.331 138.909 194.679 131.141C197.748 130.106 201.058 128.375 204.326 128.121C210.129 127.671 209.438 132.864 209.471 136.64C213.021 135.074 219.63 131.944 222.99 135.137C224.821 136.877 224.42 139.974 224.387 142.313C224.933 142.092 225.482 141.876 226.033 141.666C232.641 139.165 239.456 140.394 242.215 147.796C242.645 148.95 242.813 150.021 242.824 151.247C242.894 159.057 242.857 166.87 242.859 174.681L242.874 219.892L242.87 256.093C242.876 262.61 242.938 269.219 242.807 275.734C242.768 277.696 242.011 279.958 241.144 281.713C237.616 288.853 232.129 289.765 225.486 292.143L213.994 296.29L176.999 309.55C173.651 310.773 170.292 311.974 166.926 313.149C165.136 313.777 163.248 314.43 161.472 315.099C160.497 315.598 159.734 316.495 158.851 317.125C149.503 323.801 135.205 324.087 125.83 317.304C124.952 316.669 123.337 315.341 122.377 314.968C119.049 313.677 115.399 312.48 112.037 311.299L69.7109 296.142L57.3796 291.795C54.7074 290.851 51.2875 289.813 48.8644 288.42C44.7341 286.004 41.4457 280.632 41.355 275.812C41.2407 269.754 41.3172 263.617 41.3203 257.556L41.329 222.13L41.3552 173.992C41.3631 169.156 40.7991 150.966 42.086 147.475C43.0582 144.817 45.0468 142.657 47.6111 141.475C51.9926 139.465 55.7276 140.721 59.9304 142.269C59.9277 140.598 59.8212 138.436 60.4003 136.887C62.6743 130.808 70.7605 135.051 74.8296 136.673C74.8379 132.724 73.837 129.484 78.389 127.969Z" fill="#366351"/>
<path d="M45.889 151.495C45.9575 149.474 46.3851 147.95 47.8629 146.51C48.6922 145.702 50.7148 144.78 51.8439 144.906C56.7835 145.458 62.2238 147.899 66.8768 149.604L82.6502 155.324C91.2167 158.301 99.7573 161.353 108.271 164.479C111.879 165.784 116.229 167.208 119.738 168.65L119.721 172.61C119.412 202.354 119.674 232.607 119.698 262.392C119.727 270.185 119.715 277.979 119.659 285.772C119.568 292.935 119.32 302.694 119.984 309.616C113.652 307.482 107.157 304.994 100.843 302.713L73.6819 292.993L59.1094 287.745C56.6919 286.875 53.8115 285.979 51.5245 284.871C44.3597 281.396 45.7838 272.381 45.7845 265.811L45.7755 248.58L45.7903 192.096L45.7938 163.516C45.7899 161.961 45.6724 152.501 45.889 151.495Z" fill="#7AB28F"/>
<path d="M45.889 151.495C45.9575 149.474 46.3851 147.95 47.8629 146.51C48.6922 145.702 50.7148 144.78 51.8439 144.906C56.7835 145.458 62.2238 147.899 66.8768 149.604L82.6502 155.324C91.2167 158.301 99.7573 161.353 108.271 164.479C111.879 165.784 116.229 167.208 119.738 168.65L119.721 172.61C118.197 171.862 114.703 170.816 112.983 170.237C109.503 169.065 106.039 167.849 102.59 166.591L56.8773 150.425C54.1369 149.474 50.9275 147.932 48.202 149.736C47.5621 150.159 46.4107 151.354 45.889 151.495Z" fill="#B1CCB8"/>
<path d="M59.4032 168.733C60.2313 168.694 60.8394 168.699 61.6377 168.983C74.5624 173.572 87.5117 178.096 100.455 182.634C102.207 183.248 104.383 183.916 105.844 185.124C106.135 185.365 106.547 186.65 106.566 187.063C106.665 189.125 106.639 191.209 106.641 193.275L106.647 205.117V216.615C106.647 218.519 106.676 220.532 106.584 222.436C106.542 223.306 105.754 223.793 105.097 224.278C103.079 224.378 96.4998 221.788 94.2561 221.006C89.3918 219.347 84.54 217.652 79.701 215.921C73.7368 213.792 67.6953 211.721 61.7354 209.577C61.0558 209.264 59.3913 208.598 58.9243 208.074C57.6141 206.604 57.9906 202.816 57.9873 200.977L57.9788 191.228L57.9888 177.863C57.9961 175.546 57.9852 173.172 58.0694 170.856C58.112 169.683 58.5079 169.499 59.4032 168.733Z" fill="#B0CCB8"/>
<path d="M65.195 177.969C65.6786 177.996 66.1216 178.032 66.5851 178.182C69.7737 179.221 99.1652 189.669 99.96 190.417C100.498 190.923 100.877 191.605 100.823 192.362C100.761 193.223 100.293 193.707 99.6835 194.26C99.1049 194.283 98.6296 194.25 98.0712 194.086C94.2645 192.968 65.9717 182.921 64.9491 181.927C64.3867 181.381 63.9742 180.691 64.0224 179.884C64.0777 178.963 64.5503 178.55 65.195 177.969Z" fill="#366351"/>
<path d="M164.501 168.516C168.14 166.959 174.159 165.056 178.026 163.688L205.575 153.927L220.532 148.525C227.004 146.136 237.558 140.452 238.439 151.977L238.449 239.057C238.501 247.486 238.499 255.917 238.439 264.346C238.431 267.69 238.716 273.346 238.292 276.479C237.969 278.97 236.847 281.29 235.096 283.087C232.934 285.316 224.05 288.099 220.765 289.28L202.401 295.867C189.766 300.355 176.76 305.305 164.138 309.569C164.872 304.679 164.634 299.424 164.626 294.439L164.61 273.991L164.632 205.113L164.622 183.575C164.616 180.461 164.456 175.792 164.62 172.777C164.597 171.357 164.556 169.936 164.501 168.516Z" fill="#478660"/>
<path d="M164.501 168.516C168.14 166.959 174.159 165.056 178.026 163.688L205.575 153.927L220.532 148.525C227.004 146.136 237.558 140.452 238.439 151.977C236.127 149.386 234.214 148.087 230.701 149.344C224.497 151.564 218.193 153.728 211.985 155.912L172.558 169.801C170.587 170.491 168.628 171.207 166.676 171.947C166.454 172.032 164.634 172.774 164.62 172.777C164.597 171.357 164.557 169.936 164.501 168.516Z" fill="#7AB28F"/>
<path d="M223.969 168.568C227.301 168.64 226.162 173.439 226.185 175.808L226.206 195.69C226.202 199.022 226.229 202.354 226.179 205.685C226.158 207.066 225.231 208.597 223.944 209.123C221.497 210.126 218.956 210.984 216.455 211.856L201.8 216.925L188.224 221.703C185.92 222.519 182.543 223.812 180.275 224.38C179.818 224.39 179.466 224.342 179.055 224.145C178.556 223.905 178.229 223.485 178.053 222.965C177.573 221.547 177.597 191.712 177.757 188.418C177.799 187.555 177.847 186.408 178.281 185.653C178.639 185.029 179.2 184.415 179.853 184.103C181.496 183.319 183.371 182.8 185.097 182.205C188.359 181.093 191.614 179.962 194.862 178.813C204.176 175.505 214.605 171.517 223.969 168.568Z" fill="#B0CCB8"/>
<path d="M218.041 178.02C220.064 177.909 220.859 179.914 220.083 180.861C218.152 183.221 209.578 185.703 206.933 186.649L185.458 194.377C182.298 194.563 182.72 190.947 184.61 190.137C188.128 188.63 192.043 187.332 195.652 186.042L218.041 178.02Z" fill="#366351"/>
<path d="M129.182 175.197C139.704 177.977 150.78 178.805 160.048 171.996C160.152 178.151 159.988 184.614 160.187 190.669L160.212 195.478C160.16 199.433 160.098 203.266 160.212 207.223C160.214 208.693 160.27 210.594 160.187 212.03L160.133 258.814C160.127 267.404 159.919 276.97 160.191 285.492C160.194 287.088 160.243 288.888 160.189 290.467C160.167 295.127 160.098 299.804 160.191 304.463C160.483 319.098 138.561 320.498 129.168 314.43C128.4 313.864 127.617 313.244 126.925 312.586C125.671 311.405 124.768 309.9 124.316 308.234C123.669 305.781 124.052 293.31 123.972 289.806L124.004 288.81C123.887 286.33 124.002 282.799 124.003 280.244L124.008 263.097L123.973 211.237C124.004 210.302 123.972 209.153 123.97 208.201L123.996 195.464L124 190.798L123.987 171.931C125.899 173.431 127.006 174.136 129.182 175.197Z" fill="#478660"/>
<path d="M129.182 175.197C139.704 177.977 150.78 178.805 160.048 171.996C160.152 178.151 159.988 184.614 160.187 190.669L160.212 195.478C160.16 199.433 160.098 203.266 160.212 207.223C160.214 208.693 160.27 210.594 160.187 212.03C150.276 217.394 140.008 217.593 129.296 214.489L129.228 214.4C128.915 212.859 128.953 211.398 129.05 209.842C127.894 209.4 125.022 207.643 124.185 207.749L123.97 208.201L123.996 195.464L124 190.798L123.987 171.931C125.899 173.431 127.006 174.136 129.182 175.197Z" fill="#478660"/>
<path d="M129.182 175.197C139.704 177.977 150.78 178.805 160.048 171.996C160.152 178.151 159.988 184.614 160.187 190.669C151.41 195.564 141.052 196.75 131.403 193.964C130.653 193.736 129.907 193.497 129.165 193.247L129.101 193.157C127.343 192.524 125.66 191.322 124 190.798L123.987 171.931C125.899 173.431 127.006 174.136 129.182 175.197Z" fill="#478660"/>
<path d="M123.987 171.931C125.899 173.431 127.006 174.136 129.182 175.197C129.168 181.091 129.25 187.288 129.101 193.157C127.343 192.524 125.66 191.322 124 190.798L123.987 171.931Z" fill="#7AB28F"/>
<path d="M160.187 190.669L160.212 195.478C151.75 200.39 140.804 201.164 131.479 198.657C130.753 198.46 130.028 198.257 129.306 198.046L129.222 197.988C129.061 196.792 129.151 194.531 129.165 193.247C129.907 193.497 130.653 193.736 131.403 193.964C141.052 196.75 151.41 195.564 160.187 190.669Z" fill="#B0CCB8"/>
<path d="M129.05 209.842C129.719 210.117 130.28 210.275 130.983 210.441C141.168 212.841 151.085 212.657 160.212 207.223C160.214 208.693 160.27 210.594 160.187 212.03C150.276 217.394 140.008 217.593 129.296 214.489L129.228 214.4C128.915 212.859 128.953 211.398 129.05 209.842Z" fill="#B0CCB8"/>
<path d="M124 190.798C125.66 191.322 127.343 192.524 129.101 193.157L129.165 193.247C129.151 194.531 129.061 196.792 129.222 197.988L129.306 198.046C128.943 198.982 129.162 207.85 129.05 209.842C127.894 209.4 125.022 207.643 124.185 207.749L123.97 208.201L123.996 195.464L124 190.798Z" fill="#7AB28F"/>
<path d="M124 190.798C125.66 191.322 127.343 192.524 129.101 193.157L129.165 193.247C129.151 194.531 129.061 196.792 129.222 197.988C127.385 197.203 125.769 196.37 123.996 195.464L124 190.798Z" fill="#EABB80"/>
<path d="M123.972 289.806C124.613 291.213 127.11 291.949 128.573 292.496L129.056 292.676L129.167 292.778C139.168 296.238 150.827 295.378 160.189 290.467C160.167 295.127 160.098 299.804 160.191 304.463C160.483 319.098 138.561 320.498 129.168 314.43C128.4 313.864 127.617 313.244 126.925 312.586C125.671 311.405 124.768 309.9 124.316 308.234C123.669 305.781 124.052 293.31 123.972 289.806Z" fill="#478660"/>
<path d="M123.972 289.806C124.613 291.213 127.11 291.949 128.573 292.496L129.056 292.676L129.167 292.778L129.168 314.43C128.4 313.864 127.617 313.244 126.925 312.586C125.671 311.405 124.768 309.9 124.316 308.234C123.669 305.781 124.052 293.31 123.972 289.806Z" fill="#7AB28F"/>
<path d="M123.97 208.201L124.185 207.749C125.022 207.643 127.894 209.4 129.05 209.842C128.953 211.398 128.915 212.859 129.228 214.4L129.296 214.489C129.046 215.962 129.143 220.432 129.147 222.109L129.172 236.818L129.133 270.547C129.124 276.297 129 282.416 129.105 288.12C129.114 289.626 129.149 291.178 129.056 292.676L128.573 292.496C127.11 291.949 124.613 291.213 123.972 289.806L124.004 288.81C123.887 286.33 124.002 282.799 124.003 280.244L124.008 263.097L123.973 211.237C124.004 210.302 123.972 209.152 123.97 208.201Z" fill="#7AB28F"/>
<path d="M124.177 285.696C125.57 286.458 127.647 287.683 129.105 288.12C129.114 289.626 129.149 291.178 129.056 292.676L128.573 292.496C127.11 291.949 124.613 291.213 123.972 289.806L124.004 288.81C124.096 287.896 124.129 286.63 124.177 285.696Z" fill="#EABB80"/>
<path d="M123.97 208.201L124.185 207.749C125.022 207.643 127.894 209.4 129.05 209.842C128.953 211.398 128.915 212.859 129.228 214.4C127.617 213.806 124.492 212.978 123.973 211.237C124.004 210.302 123.972 209.152 123.97 208.201Z" fill="#EABB80"/>
<path d="M129.105 288.12C130.538 288.634 132.005 289.048 133.494 289.359C142.154 291.234 152.599 290.397 160.191 285.492C160.194 287.088 160.243 288.888 160.189 290.467C150.827 295.378 139.168 296.238 129.167 292.778L129.056 292.676C129.149 291.178 129.114 289.626 129.105 288.12Z" fill="#B0CCB8"/>
<path d="M79.1983 132.281C84.1365 133.425 90.4377 136.103 95.0724 138.178C107.989 143.959 119.907 151.403 131.394 159.626C133.526 161.077 135.466 162.716 137.449 164.356C138.9 165.556 140.476 167.054 142.06 168.023C144.655 166.509 147.058 164.12 149.478 162.256C153.709 159.053 158.048 155.996 162.487 153.091C164.269 153.256 166.745 153.341 168.422 153.581C167.487 159.408 174.98 155.034 176.995 154.308C183.02 152.141 215.95 137.299 219.705 138.494C220.229 139.241 220.046 142.903 220.037 144C206.147 149.18 191.974 153.916 178.046 159.025C172.304 161.131 166.42 163.266 160.564 164.992C159.742 166.003 158.268 167.784 157.225 168.592C152.331 172.392 144.112 173.118 138.193 172.532C134.553 172.173 129.556 170.925 126.785 168.488C125.916 167.724 124.646 166.132 123.879 165.192C122.185 164.484 118.396 163.379 116.507 162.737L102.225 157.723L64.4191 144.027C64.3881 142.58 64.284 140.154 64.5285 138.805C64.8029 138.48 64.9821 138.331 65.5663 138.425C68.3568 138.877 71.9659 140.286 74.5967 141.227C83.4242 144.385 91.9503 147.987 100.626 151.527C104.745 153.136 108.784 155.089 112.953 156.546C114.891 157.223 116.423 155.844 115.491 153.873C114.542 151.864 112.627 151.863 110.838 151.124C108.992 150.361 107.171 149.577 105.34 148.804C96.7335 145.089 88.0323 141.599 79.2453 138.337C79.1116 136.321 79.096 134.299 79.1983 132.281Z" fill="#B0CCB8"/>
<path d="M162.487 153.091C172.63 146.539 182.702 140.844 193.874 136.212C197.249 134.812 201.361 132.944 204.987 132.468C205.135 134.511 205.149 136.261 205.155 138.298C193.242 142.568 181.631 147.693 169.886 152.417C169.319 152.645 168.83 153.138 168.422 153.581C166.745 153.341 164.269 153.256 162.487 153.091Z" fill="#B0CCB8"/>
</g>
<defs>
<clipPath id="clip0_2001_266">
<rect width="202.032" height="194.758" fill="white" transform="translate(41.0611 127.621)"/>
</clipPath>
</defs>
</svg>
