<svg width="34" height="36" viewBox="0 0 34 36" fill="none" xmlns="http://www.w3.org/2000/svg">
<circle cx="17" cy="17" r="17" fill="#0CA45A"/>
<path d="M17.2834 7.96867C17.8652 7.96867 18.3223 8.42837 18.3223 9.01346L18.3223 27.8197C18.3223 28.4048 17.8652 28.8645 17.2834 28.8645C16.7016 28.8645 16.2445 28.4048 16.2445 27.8197L16.2445 9.01346C16.2445 8.42837 16.7016 7.96867 17.2834 7.96867Z" fill="#F7F1D7"/>
<path d="M17.2831 5.8792C17.4194 5.87753 17.5545 5.90455 17.6797 5.95854C17.805 6.01252 17.9176 6.09226 18.0103 6.19264L25.2826 13.5062C25.6981 13.9241 25.6981 14.5719 25.2826 14.9898C24.867 15.4077 24.2229 15.4077 23.8073 14.9898L17.2623 8.4076L10.7173 14.9898C10.3018 15.4077 9.65768 15.4077 9.24213 14.9898C8.82657 14.5719 8.82657 13.9241 9.24213 13.5062L16.5143 6.19264C16.7221 5.98368 16.9922 5.8792 17.2416 5.8792L17.2831 5.8792Z" fill="#F7F1D7"/>
</svg>
