<svg width="32" height="56" viewBox="0 0 32 56" fill="none" xmlns="http://www.w3.org/2000/svg">
<path d="M15.9999 45.5C15.0044 45.5 14.2222 44.73 14.2222 43.75V12.25C14.2222 11.27 15.0044 10.5 15.9999 10.5C16.9955 10.5 17.7777 11.27 17.7777 12.25V43.75C17.7777 44.73 16.9955 45.5 15.9999 45.5Z" fill="#0CA45A"/>
<path d="M16.0001 49C15.7669 49.0028 15.5357 48.9575 15.3214 48.8671C15.1071 48.7767 14.9144 48.6431 14.7556 48.475L2.31117 36.225C1.60005 35.525 1.60005 34.44 2.31117 33.74C3.02228 33.04 4.1245 33.04 4.83561 33.74L16.0356 44.765L27.2356 33.74C27.9467 33.04 29.0489 33.04 29.7601 33.74C30.4712 34.44 30.4712 35.525 29.7601 36.225L17.3156 48.475C16.9601 48.825 16.4978 49 16.0712 49H16.0001Z" fill="#0CA45A"/>
</svg>
