<svg width="8" height="11" viewBox="0 0 8 11" fill="none" xmlns="http://www.w3.org/2000/svg">
<path d="M3.99989 9.375C3.751 9.375 3.55545 9.1825 3.55545 8.9375V1.0625C3.55545 0.8175 3.751 0.625 3.99989 0.625C4.24878 0.625 4.44434 0.8175 4.44434 1.0625V8.9375C4.44434 9.1825 4.24878 9.375 3.99989 9.375Z" fill="#0CA45A"/>
<path d="M3.99989 10.25C3.9416 10.2507 3.88381 10.2394 3.83023 10.2168C3.77665 10.1942 3.72847 10.1608 3.68878 10.1188L0.577669 7.05625C0.399891 6.88125 0.399891 6.61 0.577669 6.435C0.755447 6.26 1.031 6.26 1.20878 6.435L4.00878 9.19125L6.80878 6.435C6.98656 6.26 7.26211 6.26 7.43989 6.435C7.61767 6.61 7.61767 6.88125 7.43989 7.05625L4.32878 10.1188C4.23989 10.2063 4.12434 10.25 4.01767 10.25H3.99989Z" fill="#0CA45A"/>
</svg>
