<svg width="8" height="14" viewBox="0 0 8 14" fill="none" xmlns="http://www.w3.org/2000/svg">
<path d="M4.00011 11.375C3.75122 11.375 3.55566 11.1825 3.55566 10.9375V3.0625C3.55566 2.8175 3.75122 2.625 4.00011 2.625C4.249 2.625 4.44455 2.8175 4.44455 3.0625V10.9375C4.44455 11.1825 4.249 11.375 4.00011 11.375Z" fill="#0CA45A"/>
<path d="M3.99989 12.25C3.9416 12.2507 3.88381 12.2394 3.83023 12.2168C3.77665 12.1942 3.72847 12.1608 3.68878 12.1187L0.577669 9.05624C0.399891 8.88124 0.399891 8.60999 0.577669 8.43499C0.755447 8.25999 1.031 8.25999 1.20878 8.43499L4.00878 11.1912L6.80878 8.43499C6.98656 8.25999 7.26211 8.25999 7.43989 8.43499C7.61767 8.60999 7.61767 8.88124 7.43989 9.05624L4.32878 12.1187C4.23989 12.2062 4.12434 12.25 4.01767 12.25H3.99989Z" fill="#0CA45A"/>
</svg>
