<svg width="350" height="215" viewBox="0 0 350 215" fill="none" xmlns="http://www.w3.org/2000/svg">
<rect width="350" height="215" fill="#F7F1D7"/>
<path d="M85.7265 161.039C84.5715 161.039 83.4785 160.555 82.626 159.658C81.3806 158.348 80.8043 156.31 80.5543 154.425H73.7772C73.3533 157.065 71.9674 159.151 70.5982 160.344L69.8219 161.02L68.786 161.036H47.5712L46.6496 159.808C46.09 159.03 45.8876 158.025 46.0924 157.057C47.5069 150.202 42.0585 142.092 41.4584 141.227C23.0011 119.125 29.6853 94.8528 30.3092 92.757C40.825 50.0093 84.5215 56.3836 93.4109 58.1507C103.886 47.1246 113.014 50.5905 114.052 51.0349H114.054L115.312 51.5766L116.188 54.4613L115.45 55.7946C113.373 59.3998 112.733 65.0063 112.652 68.4458C120.634 75.0936 124.741 84.6577 126.332 89.1596C129.235 89.1596 131.145 90.435 132.304 91.6499C136.357 95.8863 135.776 103.901 135.583 105.732C135.757 111.959 134.402 116.356 131.559 118.801C129.933 120.2 128.02 120.734 126.261 120.76C123.394 130.945 112.556 142.213 111.216 143.578L110.97 143.825L110.68 144.006C109.623 144.864 108.087 150.846 107.615 158.033L107.422 160.952L104.686 161.031H85.9051C85.8431 161.039 85.786 161.039 85.7265 161.039ZM86.4432 154.738H102.162C102.738 148.942 104.141 141.306 107.534 138.76C111.242 134.929 120.403 124.121 121.205 116.995L121.367 115.546L122.508 114.68C123.229 114.16 124.118 114.018 124.946 114.291C125.01 114.312 126.835 114.888 128.061 113.834C129.378 112.703 130.023 109.818 129.883 105.708L129.873 105.432L129.906 105.158C130.164 103.031 130.13 98.0321 128.385 96.215C128.123 95.9415 127.32 95.1132 125.01 95.6075L122.501 96.144L121.651 93.396C121.496 92.8438 117.812 79.9269 108.222 72.677L107.02 71.7671L106.953 70.0973C106.927 69.219 106.815 62.5423 108.858 56.452C106.032 56.5545 101.541 57.8799 96.4208 63.7177L95.2921 65.0063L93.649 64.6144C91.744 64.149 45.8185 53.4752 35.7933 94.4899L35.7362 94.6924C35.4599 95.5944 29.1043 117.234 45.7257 137.048L45.859 137.219C46.1424 137.611 52.0146 145.826 52.017 154.735H67.6144C67.9859 154.162 68.3669 153.236 68.1359 152.043L67.8525 150.578L68.7217 149.331C69.2813 148.566 70.1148 148.124 71.0054 148.124H84.3334L85.2359 149.087C85.7884 149.705 86.0884 150.528 86.0813 151.398C86.0646 152.734 86.2384 154.036 86.4432 154.738ZM73.7081 150.72C73.7105 150.73 73.7129 150.738 73.7129 150.749C73.7105 150.741 73.7105 150.73 73.7081 150.72ZM126.861 117.765C126.861 117.768 126.861 117.776 126.858 117.781C126.858 117.776 126.861 117.77 126.861 117.765Z" fill="#0CA45A"/>
<path d="M78.1113 123.924C77.9994 123.924 77.9184 123.921 77.866 123.921H68.1099V117.626H77.9446C79.0519 117.67 82.0476 117.355 83.5263 115.751C83.9073 115.338 84.4146 114.615 84.4146 113.124C84.4146 111.643 83.9335 110.973 83.5692 110.599C82.1714 109.156 79.2305 109.024 78.3137 109.087C77.6731 109.135 72.1152 109.405 68.5528 105.711C66.7335 103.823 65.7715 101.227 65.7715 98.2057C65.7715 95.0685 66.7573 92.3784 68.6243 90.4245C72.0604 86.8324 77.2588 86.8955 78.1803 86.9376H87.8626V93.233L77.9613 93.2278C76.9778 93.1725 74.0536 93.4013 72.5343 95.0054C72.0795 95.4866 71.4723 96.3413 71.4723 98.2031C71.4723 99.9044 72.0343 100.683 72.4557 101.119C74.006 102.729 77.1707 102.858 77.9351 102.805C78.5114 102.758 83.9669 102.418 87.4388 105.974C89.189 107.767 90.1153 110.242 90.1153 113.124C90.1153 115.956 89.2081 118.43 87.4912 120.274C84.3098 123.695 79.371 123.924 78.1113 123.924Z" fill="#0CA45A"/>
<path d="M80.8375 80.9209H75.1367V90.0826H80.8375V80.9209Z" fill="#0CA45A"/>
<path d="M80.8375 120.758H75.1367V130.027H80.8375V120.758Z" fill="#0CA45A"/>
<path d="M159.611 101.84C156.755 101.84 154.179 101.355 151.883 100.384C149.605 99.4133 147.72 98.032 146.227 96.24C144.752 94.4293 143.791 92.292 143.343 89.828L148.495 89.016C149.148 91.5547 150.501 93.5427 152.555 94.98C154.627 96.3987 157.063 97.108 159.863 97.108C161.673 97.108 163.307 96.828 164.763 96.268C166.237 95.6893 167.404 94.868 168.263 93.804C169.121 92.74 169.551 91.48 169.551 90.024C169.551 89.128 169.392 88.3627 169.075 87.728C168.776 87.0747 168.356 86.524 167.815 86.076C167.292 85.6093 166.695 85.2173 166.023 84.9C165.351 84.5827 164.651 84.3213 163.923 84.116L153.647 81.064C152.527 80.728 151.444 80.308 150.399 79.804C149.353 79.2813 148.42 78.6373 147.599 77.872C146.777 77.088 146.124 76.1547 145.639 75.072C145.153 73.9707 144.911 72.6733 144.911 71.18C144.911 68.7907 145.527 66.756 146.759 65.076C148.009 63.3773 149.699 62.08 151.827 61.184C153.955 60.288 156.353 59.8493 159.023 59.868C161.729 59.8867 164.147 60.372 166.275 61.324C168.421 62.2573 170.195 63.6013 171.595 65.356C173.013 67.1107 173.965 69.2107 174.451 71.656L169.159 72.58C168.879 70.9373 168.253 69.528 167.283 68.352C166.331 67.1573 165.136 66.2427 163.699 65.608C162.261 64.9547 160.684 64.6187 158.967 64.6C157.324 64.5813 155.84 64.8427 154.515 65.384C153.189 65.9253 152.135 66.6813 151.351 67.652C150.567 68.604 150.175 69.7053 150.175 70.956C150.175 72.188 150.529 73.1867 151.239 73.952C151.948 74.6987 152.816 75.296 153.843 75.744C154.888 76.1733 155.905 76.528 156.895 76.808L164.567 79.02C165.444 79.2627 166.452 79.5987 167.591 80.028C168.748 80.4573 169.868 81.064 170.951 81.848C172.033 82.6133 172.929 83.64 173.639 84.928C174.348 86.1973 174.703 87.8027 174.703 89.744C174.703 91.6853 174.311 93.412 173.527 94.924C172.761 96.436 171.688 97.7053 170.307 98.732C168.925 99.74 167.32 100.505 165.491 101.028C163.661 101.569 161.701 101.84 159.611 101.84ZM180.576 101V60.68H185.112L200.344 92.796L215.492 60.68H220.084V100.972H215.352V71.628L201.66 101H199L185.308 71.628V101H180.576ZM225.136 101L238.632 60.68H245.576L259.072 101H253.892L241.264 63.592H242.832L230.316 101H225.136ZM231.632 91.564V86.888H252.576V91.564H231.632ZM264.084 101V60.68H280.016C280.408 60.68 280.875 60.6987 281.416 60.736C281.957 60.7547 282.48 60.8107 282.984 60.904C285.168 61.24 286.997 61.9867 288.472 63.144C289.965 64.3013 291.085 65.7667 291.832 67.54C292.579 69.2947 292.952 71.2453 292.952 73.392C292.952 76.5093 292.14 79.216 290.516 81.512C288.892 83.7893 286.512 85.2173 283.376 85.796L281.472 86.104H269.068V101H264.084ZM288.08 101L280.128 84.592L285.056 83.08L293.792 101H288.08ZM269.068 81.372H279.848C280.203 81.372 280.604 81.3533 281.052 81.316C281.519 81.2787 281.957 81.2133 282.368 81.12C283.656 80.8213 284.701 80.28 285.504 79.496C286.325 78.6933 286.923 77.76 287.296 76.696C287.669 75.6133 287.856 74.512 287.856 73.392C287.856 72.272 287.669 71.18 287.296 70.116C286.923 69.0333 286.325 68.0907 285.504 67.288C284.701 66.4853 283.656 65.944 282.368 65.664C281.957 65.552 281.519 65.4867 281.052 65.468C280.604 65.4307 280.203 65.412 279.848 65.412H269.068V81.372ZM310.347 101V65.412H296.599V60.68H329.079V65.412H315.331V101H310.347ZM181.621 156.84C177.608 156.84 174.201 155.953 171.401 154.18C168.601 152.407 166.464 149.943 164.989 146.788C163.533 143.633 162.805 139.984 162.805 135.84C162.805 131.696 163.533 128.047 164.989 124.892C166.464 121.737 168.601 119.273 171.401 117.5C174.201 115.727 177.608 114.84 181.621 114.84C186.288 114.84 190.124 116.025 193.129 118.396C196.153 120.767 198.234 123.959 199.373 127.972L194.305 129.316C193.484 126.311 192.018 123.94 189.909 122.204C187.8 120.468 185.037 119.6 181.621 119.6C178.616 119.6 176.114 120.281 174.117 121.644C172.12 123.007 170.617 124.911 169.609 127.356C168.601 129.783 168.088 132.611 168.069 135.84C168.05 139.051 168.545 141.879 169.553 144.324C170.561 146.751 172.073 148.655 174.089 150.036C176.105 151.399 178.616 152.08 181.621 152.08C185.037 152.08 187.8 151.212 189.909 149.476C192.018 147.721 193.484 145.351 194.305 142.364L199.373 143.708C198.234 147.703 196.153 150.895 193.129 153.284C190.124 155.655 186.288 156.84 181.621 156.84ZM201.62 156L215.116 115.68H222.06L235.556 156H230.376L217.748 118.592H219.316L206.8 156H201.62ZM208.116 146.564V141.888H229.06V146.564H208.116ZM253.783 156.84C250.927 156.84 248.351 156.355 246.055 155.384C243.777 154.413 241.892 153.032 240.399 151.24C238.924 149.429 237.963 147.292 237.515 144.828L242.667 144.016C243.32 146.555 244.673 148.543 246.727 149.98C248.799 151.399 251.235 152.108 254.035 152.108C255.845 152.108 257.479 151.828 258.935 151.268C260.409 150.689 261.576 149.868 262.435 148.804C263.293 147.74 263.723 146.48 263.723 145.024C263.723 144.128 263.564 143.363 263.247 142.728C262.948 142.075 262.528 141.524 261.987 141.076C261.464 140.609 260.867 140.217 260.195 139.9C259.523 139.583 258.823 139.321 258.095 139.116L247.819 136.064C246.699 135.728 245.616 135.308 244.571 134.804C243.525 134.281 242.592 133.637 241.771 132.872C240.949 132.088 240.296 131.155 239.811 130.072C239.325 128.971 239.083 127.673 239.083 126.18C239.083 123.791 239.699 121.756 240.931 120.076C242.181 118.377 243.871 117.08 245.999 116.184C248.127 115.288 250.525 114.849 253.195 114.868C255.901 114.887 258.319 115.372 260.447 116.324C262.593 117.257 264.367 118.601 265.767 120.356C267.185 122.111 268.137 124.211 268.623 126.656L263.331 127.58C263.051 125.937 262.425 124.528 261.455 123.352C260.503 122.157 259.308 121.243 257.871 120.608C256.433 119.955 254.856 119.619 253.139 119.6C251.496 119.581 250.012 119.843 248.687 120.384C247.361 120.925 246.307 121.681 245.523 122.652C244.739 123.604 244.347 124.705 244.347 125.956C244.347 127.188 244.701 128.187 245.411 128.952C246.12 129.699 246.988 130.296 248.015 130.744C249.06 131.173 250.077 131.528 251.067 131.808L258.739 134.02C259.616 134.263 260.624 134.599 261.763 135.028C262.92 135.457 264.04 136.064 265.123 136.848C266.205 137.613 267.101 138.64 267.811 139.928C268.52 141.197 268.875 142.803 268.875 144.744C268.875 146.685 268.483 148.412 267.699 149.924C266.933 151.436 265.86 152.705 264.479 153.732C263.097 154.74 261.492 155.505 259.663 156.028C257.833 156.569 255.873 156.84 253.783 156.84ZM274.748 156V115.68H279.732V133.46H300.956V115.68H305.94V156H300.956V138.192H279.732V156H274.748Z" fill="#0CA45A"/>
</svg>
