<svg width="350" height="180" viewBox="0 0 350 180" fill="none" xmlns="http://www.w3.org/2000/svg">
<rect width="350" height="180" fill="#F7F1D7"/>
<path d="M79.7265 144.039C78.5715 144.039 77.4785 143.555 76.626 142.658C75.3806 141.348 74.8043 139.31 74.5543 137.425H67.7772C67.3533 140.065 65.9674 142.151 64.5982 143.344L63.8219 144.02L62.786 144.036H41.5712L40.6496 142.808C40.09 142.03 39.8876 141.025 40.0924 140.057C41.5069 133.202 36.0585 125.092 35.4584 124.227C17.0011 102.125 23.6853 77.8528 24.3092 75.757C34.825 33.0093 78.5215 39.3836 87.4109 41.1507C97.8861 30.1246 107.014 33.5905 108.052 34.0349H108.054L109.312 34.5766L110.188 37.4613L109.45 38.7946C107.373 42.3998 106.733 48.0063 106.652 51.4458C114.634 58.0936 118.741 67.6577 120.332 72.1596C123.235 72.1596 125.145 73.435 126.304 74.6499C130.357 78.8863 129.776 86.9015 129.583 88.7317C129.757 94.9587 128.402 99.3555 125.559 101.801C123.933 103.2 122.02 103.734 120.261 103.76C117.394 113.945 106.556 125.213 105.216 126.578L104.97 126.825L104.68 127.006C103.623 127.864 102.087 133.846 101.615 141.033L101.422 143.952L98.6862 144.031H79.9051C79.8431 144.039 79.786 144.039 79.7265 144.039ZM80.4432 137.738H96.1621C96.7383 131.942 98.1409 124.306 101.534 121.76C105.242 117.929 114.403 107.121 115.205 99.9945L115.367 98.5456L116.508 97.6804C117.229 97.1598 118.118 97.0178 118.946 97.2912C119.01 97.3123 120.835 97.8882 122.061 96.8337C123.378 95.7029 124.023 92.8182 123.883 88.7081L123.873 88.4319L123.906 88.1584C124.164 86.0311 124.13 81.0321 122.385 79.215C122.123 78.9415 121.32 78.1132 119.01 78.6075L116.501 79.144L115.651 76.396C115.496 75.8438 111.812 62.9269 102.222 55.677L101.02 54.7671L100.953 53.0973C100.927 52.219 100.815 45.5423 102.858 39.452C100.032 39.5545 95.5406 40.8799 90.4208 46.7177L89.2921 48.0063L87.649 47.6144C85.744 47.149 39.8185 36.4752 29.7933 77.4899L29.7362 77.6924C29.4599 78.5944 23.1043 100.234 39.7257 120.048L39.859 120.219C40.1424 120.611 46.0146 128.826 46.017 137.735H61.6144C61.9859 137.162 62.3669 136.236 62.1359 135.043L61.8525 133.578L62.7217 132.331C63.2813 131.566 64.1148 131.124 65.0054 131.124H78.3334L79.2359 132.087C79.7884 132.705 80.0884 133.528 80.0813 134.398C80.0646 135.734 80.2384 137.036 80.4432 137.738ZM67.7081 133.72C67.7105 133.73 67.7129 133.738 67.7129 133.749C67.7105 133.741 67.7105 133.73 67.7081 133.72ZM120.861 100.765C120.861 100.768 120.861 100.776 120.858 100.781C120.858 100.776 120.861 100.77 120.861 100.765Z" fill="#0CA45A"/>
<path d="M72.1113 106.924C71.9994 106.924 71.9184 106.921 71.866 106.921H62.1099V100.626H71.9446C73.0519 100.67 76.0476 100.355 77.5263 98.7507C77.9073 98.3378 78.4146 97.6147 78.4146 96.1237C78.4146 94.6432 77.9335 93.9726 77.5692 93.5992C76.1714 92.1555 73.2305 92.024 72.3137 92.0871C71.6731 92.1345 66.1152 92.4053 62.5528 88.7107C60.7335 86.8226 59.7715 84.2271 59.7715 81.2056C59.7715 78.0684 60.7573 75.3783 62.6243 73.4245C66.0604 69.8324 71.2588 69.8955 72.1803 69.9376H81.8627V76.233L71.9613 76.2277C70.9778 76.1725 68.0536 76.4013 66.5343 78.0053C66.0795 78.4866 65.4723 79.3412 65.4723 81.203C65.4723 82.9044 66.0343 83.6828 66.4557 84.1193C68.006 85.7286 71.1707 85.8575 71.9351 85.8049C72.5114 85.7576 77.9669 85.4183 81.4388 88.9736C83.189 90.7671 84.1153 93.2416 84.1153 96.1237C84.1153 98.9558 83.2081 101.43 81.4912 103.274C78.3098 106.695 73.371 106.924 72.1113 106.924Z" fill="#0CA45A"/>
<path d="M74.8375 63.9209H69.1367V73.0826H74.8375V63.9209Z" fill="#0CA45A"/>
<path d="M74.8375 103.758H69.1367V113.027H74.8375V103.758Z" fill="#0CA45A"/>
<path d="M153.611 84.84C150.755 84.84 148.179 84.3547 145.883 83.384C143.605 82.4133 141.72 81.032 140.227 79.24C138.752 77.4293 137.791 75.292 137.343 72.828L142.495 72.016C143.148 74.5547 144.501 76.5427 146.555 77.98C148.627 79.3987 151.063 80.108 153.863 80.108C155.673 80.108 157.307 79.828 158.763 79.268C160.237 78.6893 161.404 77.868 162.263 76.804C163.121 75.74 163.551 74.48 163.551 73.024C163.551 72.128 163.392 71.3627 163.075 70.728C162.776 70.0747 162.356 69.524 161.815 69.076C161.292 68.6093 160.695 68.2173 160.023 67.9C159.351 67.5827 158.651 67.3213 157.923 67.116L147.647 64.064C146.527 63.728 145.444 63.308 144.399 62.804C143.353 62.2813 142.42 61.6373 141.599 60.872C140.777 60.088 140.124 59.1547 139.639 58.072C139.153 56.9707 138.911 55.6733 138.911 54.18C138.911 51.7907 139.527 49.756 140.759 48.076C142.009 46.3773 143.699 45.08 145.827 44.184C147.955 43.288 150.353 42.8493 153.023 42.868C155.729 42.8867 158.147 43.372 160.275 44.324C162.421 45.2573 164.195 46.6013 165.595 48.356C167.013 50.1107 167.965 52.2107 168.451 54.656L163.159 55.58C162.879 53.9373 162.253 52.528 161.283 51.352C160.331 50.1573 159.136 49.2427 157.699 48.608C156.261 47.9547 154.684 47.6187 152.967 47.6C151.324 47.5813 149.84 47.8427 148.515 48.384C147.189 48.9253 146.135 49.6813 145.351 50.652C144.567 51.604 144.175 52.7053 144.175 53.956C144.175 55.188 144.529 56.1867 145.239 56.952C145.948 57.6987 146.816 58.296 147.843 58.744C148.888 59.1733 149.905 59.528 150.895 59.808L158.567 62.02C159.444 62.2627 160.452 62.5987 161.591 63.028C162.748 63.4573 163.868 64.064 164.951 64.848C166.033 65.6133 166.929 66.64 167.639 67.928C168.348 69.1973 168.703 70.8027 168.703 72.744C168.703 74.6853 168.311 76.412 167.527 77.924C166.761 79.436 165.688 80.7053 164.307 81.732C162.925 82.74 161.32 83.5053 159.491 84.028C157.661 84.5693 155.701 84.84 153.611 84.84ZM174.576 84V43.68H179.112L194.344 75.796L209.492 43.68H214.084V83.972H209.352V54.628L195.66 84H193L179.308 54.628V84H174.576ZM219.136 84L232.632 43.68H239.576L253.072 84H247.892L235.264 46.592H236.832L224.316 84H219.136ZM225.632 74.564V69.888H246.576V74.564H225.632ZM258.084 84V43.68H274.016C274.408 43.68 274.875 43.6987 275.416 43.736C275.957 43.7547 276.48 43.8107 276.984 43.904C279.168 44.24 280.997 44.9867 282.472 46.144C283.965 47.3013 285.085 48.7667 285.832 50.54C286.579 52.2947 286.952 54.2453 286.952 56.392C286.952 59.5093 286.14 62.216 284.516 64.512C282.892 66.7893 280.512 68.2173 277.376 68.796L275.472 69.104H263.068V84H258.084ZM282.08 84L274.128 67.592L279.056 66.08L287.792 84H282.08ZM263.068 64.372H273.848C274.203 64.372 274.604 64.3533 275.052 64.316C275.519 64.2787 275.957 64.2133 276.368 64.12C277.656 63.8213 278.701 63.28 279.504 62.496C280.325 61.6933 280.923 60.76 281.296 59.696C281.669 58.6133 281.856 57.512 281.856 56.392C281.856 55.272 281.669 54.18 281.296 53.116C280.923 52.0333 280.325 51.0907 279.504 50.288C278.701 49.4853 277.656 48.944 276.368 48.664C275.957 48.552 275.519 48.4867 275.052 48.468C274.604 48.4307 274.203 48.412 273.848 48.412H263.068V64.372ZM304.347 84V48.412H290.599V43.68H323.079V48.412H309.331V84H304.347ZM175.621 139.84C171.608 139.84 168.201 138.953 165.401 137.18C162.601 135.407 160.464 132.943 158.989 129.788C157.533 126.633 156.805 122.984 156.805 118.84C156.805 114.696 157.533 111.047 158.989 107.892C160.464 104.737 162.601 102.273 165.401 100.5C168.201 98.7267 171.608 97.84 175.621 97.84C180.288 97.84 184.124 99.0253 187.129 101.396C190.153 103.767 192.234 106.959 193.373 110.972L188.305 112.316C187.484 109.311 186.018 106.94 183.909 105.204C181.8 103.468 179.037 102.6 175.621 102.6C172.616 102.6 170.114 103.281 168.117 104.644C166.12 106.007 164.617 107.911 163.609 110.356C162.601 112.783 162.088 115.611 162.069 118.84C162.05 122.051 162.545 124.879 163.553 127.324C164.561 129.751 166.073 131.655 168.089 133.036C170.105 134.399 172.616 135.08 175.621 135.08C179.037 135.08 181.8 134.212 183.909 132.476C186.018 130.721 187.484 128.351 188.305 125.364L193.373 126.708C192.234 130.703 190.153 133.895 187.129 136.284C184.124 138.655 180.288 139.84 175.621 139.84ZM195.62 139L209.116 98.68H216.06L229.556 139H224.376L211.748 101.592H213.316L200.8 139H195.62ZM202.116 129.564V124.888H223.06V129.564H202.116ZM247.783 139.84C244.927 139.84 242.351 139.355 240.055 138.384C237.777 137.413 235.892 136.032 234.399 134.24C232.924 132.429 231.963 130.292 231.515 127.828L236.667 127.016C237.32 129.555 238.673 131.543 240.727 132.98C242.799 134.399 245.235 135.108 248.035 135.108C249.845 135.108 251.479 134.828 252.935 134.268C254.409 133.689 255.576 132.868 256.435 131.804C257.293 130.74 257.723 129.48 257.723 128.024C257.723 127.128 257.564 126.363 257.247 125.728C256.948 125.075 256.528 124.524 255.987 124.076C255.464 123.609 254.867 123.217 254.195 122.9C253.523 122.583 252.823 122.321 252.095 122.116L241.819 119.064C240.699 118.728 239.616 118.308 238.571 117.804C237.525 117.281 236.592 116.637 235.771 115.872C234.949 115.088 234.296 114.155 233.811 113.072C233.325 111.971 233.083 110.673 233.083 109.18C233.083 106.791 233.699 104.756 234.931 103.076C236.181 101.377 237.871 100.08 239.999 99.184C242.127 98.288 244.525 97.8493 247.195 97.868C249.901 97.8867 252.319 98.372 254.447 99.324C256.593 100.257 258.367 101.601 259.767 103.356C261.185 105.111 262.137 107.211 262.623 109.656L257.331 110.58C257.051 108.937 256.425 107.528 255.455 106.352C254.503 105.157 253.308 104.243 251.871 103.608C250.433 102.955 248.856 102.619 247.139 102.6C245.496 102.581 244.012 102.843 242.687 103.384C241.361 103.925 240.307 104.681 239.523 105.652C238.739 106.604 238.347 107.705 238.347 108.956C238.347 110.188 238.701 111.187 239.411 111.952C240.12 112.699 240.988 113.296 242.015 113.744C243.06 114.173 244.077 114.528 245.067 114.808L252.739 117.02C253.616 117.263 254.624 117.599 255.763 118.028C256.92 118.457 258.04 119.064 259.123 119.848C260.205 120.613 261.101 121.64 261.811 122.928C262.52 124.197 262.875 125.803 262.875 127.744C262.875 129.685 262.483 131.412 261.699 132.924C260.933 134.436 259.86 135.705 258.479 136.732C257.097 137.74 255.492 138.505 253.663 139.028C251.833 139.569 249.873 139.84 247.783 139.84ZM268.748 139V98.68H273.732V116.46H294.956V98.68H299.94V139H294.956V121.192H273.732V139H268.748Z" fill="#0CA45A"/>
</svg>
