<svg width="30" height="30" viewBox="0 0 30 30" fill="none" xmlns="http://www.w3.org/2000/svg">
<path d="M14.5514 16.8872V13.1129H12.6033C11.5611 13.1129 10.7162 13.9578 10.7162 15.0001C10.7162 16.0383 11.5546 16.8807 12.5914 16.8872H14.5514Z" fill="#0CA45A"/>
<path d="M10.7162 19.6936C10.7162 18.6553 11.5546 17.8129 12.5914 17.8065H14.5514V19.6632C14.5514 20.7184 13.6814 21.5807 12.6185 21.5807C11.5723 21.5807 10.7162 20.732 10.7162 19.6936Z" fill="#0CA45A"/>
<path d="M17.3578 16.8872C16.3156 16.8872 15.4707 16.0423 15.4707 15.0001C15.4707 13.9578 16.3156 13.1129 17.3578 13.1129H17.4188C18.461 13.1129 19.3059 13.9578 19.3059 15.0001C19.3059 16.0423 18.461 16.8872 17.4188 16.8872H17.3578Z" fill="#0CA45A"/>
<path d="M17.4188 12.1935H15.4707V8.41919H17.4188C18.461 8.41919 19.3059 9.26409 19.3059 10.3063C19.3059 11.3485 18.461 12.1935 17.4188 12.1935Z" fill="#0CA45A"/>
<path d="M12.6033 8.41919H14.5514V12.1935H12.6033C11.5611 12.1935 10.7162 11.3485 10.7162 10.3063C10.7162 9.26409 11.5611 8.41919 12.6033 8.41919Z" fill="#0CA45A"/>
<path fill-rule="evenodd" clip-rule="evenodd" d="M25.3125 0C27.9013 0 30 2.09867 30 4.6875V25.3125C30 27.9013 27.9013 30 25.3125 30H4.6875C2.09867 30 0 27.9013 0 25.3125V4.6875C0 2.09867 2.09867 0 4.6875 0H25.3125ZM12.6033 7.5C11.0534 7.5 9.79688 8.75647 9.79688 10.3064C9.79688 11.2879 10.3007 12.1516 11.0637 12.6533C10.3007 13.1548 9.79688 14.0186 9.79688 15.0001C9.79688 15.9815 10.3006 16.8452 11.0636 17.3468C10.3006 17.8484 9.79688 18.7122 9.79688 19.6936C9.79688 21.2474 11.0723 22.5 12.6185 22.5C14.1814 22.5 15.4707 21.2337 15.4707 19.6631V17.0773C15.9691 17.5303 16.6312 17.8065 17.3578 17.8065H17.4188C18.9687 17.8065 20.2253 16.55 20.2253 15.0001C20.2253 14.0186 19.7214 13.1548 18.9583 12.6533C19.7214 12.1516 20.2253 11.2879 20.2253 10.3064C20.2253 8.75647 18.9687 7.5 17.4188 7.5H12.6033Z" fill="#0CA45A"/>
</svg>
