<svg width="31" height="30" viewBox="0 0 31 30" fill="none" xmlns="http://www.w3.org/2000/svg">
<path d="M15.25 0C13.2473 0 11.2643 0.394453 9.41408 1.16084C7.56386 1.92722 5.88271 3.05053 4.46662 4.46662C1.60669 7.32655 0 11.2054 0 15.25C0 21.9905 4.37675 27.7092 10.431 29.7375C11.1935 29.8595 11.4375 29.3867 11.4375 28.975V26.3977C7.21325 27.3127 6.3135 24.3542 6.3135 24.3542C5.612 22.5852 4.62075 22.1125 4.62075 22.1125C3.233 21.167 4.7275 21.1975 4.7275 21.1975C6.2525 21.3042 7.06075 22.7682 7.06075 22.7682C8.3875 25.0862 10.6292 24.4 11.4985 24.034C11.6357 23.0427 12.0322 22.3717 12.4593 21.9905C9.07375 21.6092 5.5205 20.2977 5.5205 14.4875C5.5205 12.7947 6.1 11.4375 7.09125 10.3547C6.93875 9.9735 6.405 8.3875 7.24375 6.32875C7.24375 6.32875 8.52475 5.917 11.4375 7.88425C12.6423 7.54875 13.9537 7.381 15.25 7.381C16.5462 7.381 17.8577 7.54875 19.0625 7.88425C21.9753 5.917 23.2563 6.32875 23.2563 6.32875C24.095 8.3875 23.5613 9.9735 23.4088 10.3547C24.4 11.4375 24.9795 12.7947 24.9795 14.4875C24.9795 20.313 21.411 21.594 18.0103 21.9752C18.5592 22.448 19.0625 23.3782 19.0625 24.7965V28.975C19.0625 29.3867 19.3065 29.8747 20.0842 29.7375C26.1385 27.694 30.5 21.9905 30.5 15.25C30.5 13.2473 30.1055 11.2643 29.3392 9.41408C28.5728 7.56386 27.4495 5.88271 26.0334 4.46662C24.6173 3.05053 22.9361 1.92722 21.0859 1.16084C19.2357 0.394453 17.2527 0 15.25 0Z" fill="#0CA45A"/>
</svg>
