<svg width="30" height="30" viewBox="0 0 30 30" fill="none" xmlns="http://www.w3.org/2000/svg">
<path d="M13.3323 12.7685L14.4588 16.2964H10.782L11.8872 12.7685C12.1424 11.9184 12.3548 10.9196 12.5672 10.0908H12.6097C12.8223 10.9197 13.0559 11.8972 13.3323 12.7685ZM30 5.00001V25C30 27.75 27.75 30 25 30H5.00002C2.25 29.9999 0 27.7499 0 24.9999V5.00001C0 2.25 2.25 0 5.00002 0H25C27.75 0 30 2.25 30 5.00001ZM19.0066 22.3318L14.3523 8.00828H11.0159L6.42552 22.3318H9.12452L10.3572 18.2727H14.9051L16.2015 22.3318H19.0066ZM23.4258 11.9822H20.7905V22.3318H23.4258V11.9822ZM23.5745 9.09204C23.5532 8.28445 23.0008 7.66824 22.1081 7.66824C21.2368 7.66824 20.6418 8.28445 20.6418 9.09204C20.6418 9.87844 21.2155 10.4946 22.0869 10.4946C23.0007 10.4946 23.5745 9.87838 23.5745 9.09204Z" fill="#0CA45A"/>
</svg>
