<svg width="15" height="30" viewBox="0 0 15 30" fill="none" xmlns="http://www.w3.org/2000/svg">
<path d="M9.62211 3.34503C8.7216 2.27176 7.86442 1.16288 7.05261 0.0210394C7.04805 0.0145402 7.04198 0.00923575 7.03493 0.0055738C7.02788 0.00191185 7.02006 0 7.01211 0C7.00417 0 6.99634 0.00191185 6.98929 0.0055738C6.98224 0.00923575 6.97618 0.0145402 6.97161 0.0210394C6.15984 1.16339 5.30266 2.27277 4.40212 3.34653C-6.41587 17.127 6.10911 26.424 6.10911 26.424L6.20961 26.4945C6.30561 27.933 6.54111 30 6.54111 30H7.48311C7.48311 30 7.71861 27.942 7.81311 26.505L7.91661 26.424C7.91661 26.424 20.4401 17.127 9.62361 3.34653M7.01211 26.223C7.01211 26.223 6.45111 25.743 6.29961 25.503L6.29811 25.479L6.97761 10.476C6.97929 10.4679 6.98372 10.4606 6.99014 10.4554C6.99656 10.4502 7.00458 10.4473 7.01286 10.4473C7.02114 10.4473 7.02917 10.4502 7.03559 10.4554C7.04201 10.4606 7.04643 10.4679 7.04811 10.476L7.72611 25.479V25.5045C7.57461 25.7445 7.01211 26.223 7.01211 26.223Z" fill="#F7F1D7"/>
</svg>
