<svg width="30" height="30" viewBox="0 0 30 30" fill="none" xmlns="http://www.w3.org/2000/svg">
<path d="M22.9688 0H7.03125C3.148 0 0 3.148 0 7.03125V22.9688C0 26.852 3.148 30 7.03125 30H22.9688C26.852 30 30 26.852 30 22.9688V7.03125C30 3.148 26.852 0 22.9688 0Z" fill="#0CA45A"/>
<path d="M14.2325 3.28758C14.1821 3.29215 14.0217 3.3082 13.8773 3.31957C10.5485 3.61969 7.43039 5.41594 5.45543 8.17664C4.35586 9.71168 3.65238 11.4529 3.38672 13.2973C3.29285 13.9411 3.28137 14.1313 3.28137 15.0041C3.28137 15.877 3.29285 16.0672 3.38684 16.7109C4.02363 21.112 7.15559 24.8099 11.4032 26.1799C12.1638 26.4251 12.9656 26.5923 13.8775 26.6931C14.2327 26.732 15.7676 26.732 16.1228 26.6931C17.6967 26.5189 19.0301 26.1295 20.3452 25.4582C20.5467 25.3552 20.5857 25.3276 20.5582 25.3048C20.5399 25.2909 19.6807 24.1385 18.6498 22.7456L16.7757 20.214L14.4273 16.7385C13.1352 14.8277 12.0722 13.2652 12.0629 13.2652C12.0538 13.2629 12.0446 14.8071 12.0401 16.6927C12.0332 19.9941 12.0309 20.127 11.9897 20.2048C11.9302 20.317 11.8843 20.3629 11.788 20.4134C11.7148 20.4499 11.6505 20.4568 11.3046 20.4568H10.9083L10.8028 20.3904C10.7375 20.3495 10.6845 20.2917 10.6493 20.2232L10.6012 20.12L10.6127 10.9307L10.6838 10.8412C10.7204 10.7932 10.7984 10.7313 10.8533 10.7016C10.9472 10.6557 10.9839 10.6512 11.3802 10.6512C11.8477 10.6512 11.9255 10.6695 12.047 10.8023C12.0813 10.839 13.3528 12.7543 14.8741 15.0614C16.4143 17.3966 17.9554 19.7312 19.4974 22.0651L21.3532 24.8763L21.4472 24.8145C22.2788 24.2738 23.1586 23.5039 23.855 22.702C25.3373 20.9998 26.2928 18.9241 26.6135 16.7109C26.7074 16.0672 26.7189 15.877 26.7189 15.0041C26.7189 14.1312 26.7074 13.9411 26.6135 13.2973C25.9766 8.89617 22.8446 5.19844 18.5971 3.8284C17.8479 3.58547 17.0507 3.41824 16.1571 3.31746C15.9371 3.29449 14.4226 3.2693 14.2325 3.28758ZM19.0301 10.3763C19.14 10.4312 19.2294 10.5366 19.2615 10.6465C19.2798 10.7061 19.2844 11.98 19.2798 14.8506L19.2729 18.97L18.5467 17.8564L17.8181 16.743V13.7487C17.8181 11.8127 17.8273 10.7244 17.841 10.6717C17.8777 10.5435 17.9578 10.4427 18.0679 10.383C18.1617 10.335 18.1962 10.3303 18.5558 10.3303C18.895 10.3303 18.9545 10.335 19.0301 10.3763Z" fill="#151518"/>
</svg>
