<svg width="27" height="30" viewBox="0 0 27 30" fill="none" xmlns="http://www.w3.org/2000/svg">
<path d="M13.3005 0C12.9015 0 12.4877 0.103448 12.1478 0.295566L1.15271 6.65025C0.44335 7.06404 0 7.83251 0 8.6601V21.3399C0 22.1675 0.44335 22.936 1.15271 23.3498L4.03448 25.0049C5.43842 25.6847 5.91133 25.6995 6.56158 25.6995C8.63054 25.6995 9.82759 24.4433 9.82759 22.2562V9.73892C9.82759 9.56158 9.6798 9.41379 9.50246 9.41379H8.12808C7.93596 9.41379 7.78818 9.56158 7.78818 9.73892V22.2562C7.78818 23.2315 6.78325 24.1921 5.17241 23.3793L2.14286 21.6502C2.0931 21.6151 2.05241 21.5686 2.02415 21.5147C1.99588 21.4607 1.98085 21.4008 1.9803 21.3399V8.6601C1.9803 8.52709 2.03941 8.40887 2.14286 8.34975L13.1379 2.00985C13.2266 1.95074 13.3744 1.95074 13.4631 2.00985L24.4581 8.34975C24.5616 8.40887 24.6207 8.52709 24.6207 8.6601V21.3399C24.6207 21.4581 24.5616 21.5764 24.4581 21.6502L13.4631 27.9902C13.3744 28.0493 13.2266 28.0493 13.1232 27.9902L10.3448 26.3054C10.2266 26.2611 10.1084 26.2463 10.0345 26.2906C9.25123 26.734 9.10345 26.8227 8.37931 27.0443C8.20197 27.1034 7.92118 27.2069 8.48276 27.5172L12.1478 29.6897C12.5025 29.8966 12.8867 30 13.3005 30C13.7143 30 14.0985 29.8966 14.4532 29.6897L25.4483 23.3498C26.1576 22.936 26.601 22.1675 26.601 21.3399V8.6601C26.601 7.83251 26.1576 7.06404 25.4483 6.65025L14.4532 0.295566C14.1133 0.103448 13.7143 0 13.3005 0ZM16.2562 9.08867C13.1232 9.08867 11.2463 10.4039 11.2463 12.6207C11.2463 15 13.1084 15.6946 16.1232 15.9901C19.7143 16.3448 19.9951 16.8768 19.9951 17.5862C19.9951 18.8128 19.0049 19.33 16.6995 19.33C13.7734 19.33 13.1527 18.6059 12.931 17.1576C12.9155 17.0828 12.8747 17.0155 12.8155 16.9671C12.7564 16.9187 12.6824 16.8921 12.6059 16.8916H11.1872C11.0099 16.8916 10.8768 17.0246 10.8768 17.2167C10.8768 19.0493 11.8818 21.266 16.6995 21.266C20.1724 21.266 22.1675 19.8916 22.1675 17.4975C22.1675 15.1182 20.5714 14.4975 17.1872 14.0394C13.7734 13.5961 13.4335 13.3596 13.4335 12.5616C13.4335 11.8966 13.7291 11.0099 16.2562 11.0099C18.4729 11.0099 19.3448 11.4975 19.6847 13.0197C19.7143 13.1675 19.8473 13.2709 19.9951 13.2709H21.4286C21.5025 13.2709 21.5911 13.2414 21.6502 13.1675C21.7094 13.1084 21.7537 13.0197 21.7241 12.931C21.5172 10.3005 19.7734 9.08867 16.2562 9.08867Z" fill="#F7F1D7"/>
</svg>
