<svg width="30" height="30" viewBox="0 0 30 30" fill="none" xmlns="http://www.w3.org/2000/svg">
<path d="M24.9999 0H5.00001C2.25 0 0 2.25 0 5.00001V25C0 27.75 2.25 30 5.00001 30H25C27.75 30 30 27.75 30 25V5.00001C29.9999 2.25 27.7499 0 24.9999 0ZM14.3735 15.2656C13.3322 16.3068 11.6957 16.7958 9.84691 16.7958C9.3581 16.7958 8.91186 16.7744 8.57176 16.7106V22.1085H5.97926V7.97629C6.91431 7.80633 8.21071 7.67869 9.97436 7.67869C11.8872 7.67869 13.2898 8.08249 14.2037 8.84763C15.0537 9.54902 15.6062 10.6753 15.6062 12.0141C15.6061 13.3743 15.1811 14.5005 14.3735 15.2656ZM19.8129 22.3212C18.559 22.3212 17.4328 22.0237 16.6677 21.5985L17.1777 19.7072C17.7727 20.0685 18.8991 20.4511 19.8342 20.4511C20.9816 20.4511 21.4919 19.9835 21.4919 19.3034C21.4919 18.6023 21.0669 18.2408 19.7917 17.7946C17.7726 17.0932 16.9228 15.9882 16.944 14.7768C16.944 12.9492 18.4528 11.5254 20.8542 11.5254C22.0019 11.5254 23.0007 11.823 23.5956 12.1416L23.0856 13.9905C22.6393 13.7356 21.8104 13.3955 20.8967 13.3955C19.9616 13.3955 19.4516 13.8418 19.4516 14.4792C19.4516 15.1382 19.9404 15.457 21.258 15.9245C23.1281 16.6045 23.9995 17.5608 24.0207 19.0911C24.0207 20.9612 22.5544 22.3212 19.8129 22.3212ZM12.9921 12.1203C12.9921 13.7993 11.802 14.7556 9.84691 14.7556C9.31566 14.7556 8.89061 14.7343 8.57176 14.6494V9.80393C8.84816 9.74024 9.35816 9.67648 10.0808 9.67648C11.8872 9.67648 12.9921 10.5266 12.9921 12.1203Z" fill="#F7F1D7"/>
</svg>
