<svg width="27" height="27" viewBox="0 0 27 27" fill="none" xmlns="http://www.w3.org/2000/svg">
<path d="M19.2747 0C18.2012 0.0100452 17.1339 0.161768 16.1002 0.451235L16.027 0.473187C15.3761 0.361587 14.7177 0.300023 14.0574 0.289034C12.7 0.265863 11.5329 0.585386 10.5939 1.11833C9.66702 0.806125 7.74501 0.268302 5.71933 0.375622C4.30831 0.450015 2.76923 0.865883 1.62895 2.03421C0.491106 3.20255 -0.110134 5.00992 0.0167 7.46976C0.0508474 8.14905 0.249634 9.25519 0.581353 10.6894C0.910632 12.1224 1.3765 13.7992 1.95579 15.3298C2.53508 16.8603 3.17046 18.2372 4.16318 19.1714C4.65832 19.6397 5.34005 20.0336 6.14373 20.0007C6.70839 19.9787 7.21938 19.7385 7.65964 19.3836C7.87428 19.658 8.10355 19.7775 8.3121 19.8885C8.5743 20.0275 8.83041 20.1226 9.09505 20.186C9.82791 20.374 10.5912 20.4117 11.339 20.297C11.6646 20.2446 12.0073 20.1421 12.3488 19.9958C12.361 20.3641 12.3756 20.7251 12.3915 21.091C12.4378 22.2495 12.4683 23.3191 12.8269 24.2569C12.8842 24.4106 13.0415 25.1996 13.6647 25.896C14.2867 26.5936 15.5062 27.0277 16.8941 26.7399C17.8734 26.5363 19.1198 26.1692 19.9466 25.0277C20.7637 23.8984 21.1333 22.2788 21.2064 19.6507C21.2247 19.5092 21.2467 19.3885 21.2698 19.275L21.465 19.2921H21.4869C22.5321 19.3385 23.6663 19.1945 24.6139 18.7677C25.4529 18.3896 26.0871 18.0091 26.5493 17.3323C26.6651 17.1652 26.792 16.9628 26.8261 16.6127C26.8603 16.2652 26.6554 15.7188 26.3127 15.4676C25.6261 14.9627 25.1956 15.1542 24.7334 15.2481C24.2781 15.3456 23.8163 15.3997 23.348 15.4103C24.6809 13.2346 25.6358 10.9223 26.181 8.87591C26.5029 7.66855 26.6847 6.5551 26.6993 5.58189C26.7139 4.60869 26.6322 3.74647 26.031 3.0001C24.1516 0.670754 21.5089 0.0268301 19.4649 0.00487815C19.4015 0.00325208 19.3381 0.00284565 19.2747 0.00365868V0ZM19.221 0.715878C21.154 0.697584 23.6248 1.22443 25.398 3.42329C25.7968 3.9172 25.9151 4.63918 25.9017 5.52945C25.8871 6.41851 25.7176 7.48196 25.4078 8.64785C24.8065 10.9065 23.6699 13.5383 22.0687 15.9018C22.1255 15.9412 22.1869 15.9735 22.2516 15.9981C22.5857 16.1322 23.3467 16.2469 24.8675 15.9444C25.2492 15.8652 25.5297 15.8127 25.82 16.0274C25.8895 16.085 25.9446 16.1579 25.9812 16.2404C26.0178 16.323 26.0349 16.4128 26.031 16.503C26.0149 16.6392 25.9631 16.7688 25.881 16.8786C25.5883 17.3067 25.0078 17.7128 24.2638 18.0469C23.6065 18.3445 22.6626 18.4994 21.826 18.5092C21.4064 18.5128 21.0198 18.4811 20.6918 18.3823L20.6698 18.375C20.543 19.5592 20.2515 21.8995 20.0625 22.9666C19.91 23.8276 19.6442 24.5118 19.1356 25.024C18.6283 25.5362 17.9112 25.8448 16.9453 26.046C15.7489 26.2948 14.877 26.0265 14.3147 25.5667C13.7537 25.1094 13.4964 24.5008 13.3415 24.1276C13.2354 23.8715 13.1806 23.5386 13.1269 23.0935C13.0679 22.5605 13.0284 22.0256 13.0086 21.4897C12.9736 20.5503 12.9622 19.6101 12.9744 18.6701C12.4744 19.1128 11.8525 19.408 11.1854 19.5189C10.3927 19.6494 9.68288 19.5214 9.25969 19.4189C9.05222 19.3678 8.85161 19.2921 8.66211 19.1933C8.46454 19.0921 8.27795 18.9775 8.15356 18.7506C8.08026 18.6211 8.05684 18.4693 8.0877 18.3238C8.12764 18.1759 8.21612 18.0458 8.33893 17.9543C8.5682 17.7738 8.86943 17.6738 9.32433 17.5811C10.1536 17.4164 10.4427 17.303 10.6183 17.1676C10.7683 17.0518 10.9378 16.8176 11.2378 16.4725L11.2341 16.4274C10.6995 16.4117 10.1753 16.2749 9.70117 16.0274C9.52921 16.203 8.64626 17.1091 7.56939 18.3652C7.11694 18.8909 6.61692 19.1921 6.08885 19.2141C5.56079 19.236 5.08394 18.9775 4.67905 18.597C3.86805 17.8335 3.22168 16.5201 2.65825 15.0359C2.09726 13.5505 1.63871 11.8967 1.3143 10.4882C0.987464 9.07957 0.794775 7.94417 0.767944 7.39659C0.645989 5.06846 1.20698 3.50012 2.17043 2.51106C3.13388 1.522 4.45343 1.14638 5.74128 1.07565C8.05111 0.946373 10.2451 1.72811 10.689 1.8964C11.5439 1.33297 12.6452 0.98174 14.022 1.00369C14.6747 1.01277 15.3242 1.09458 15.9587 1.2476L15.9819 1.23785C16.2615 1.14272 16.5453 1.06304 16.8331 0.998814C17.6166 0.821959 18.4166 0.727943 19.2198 0.718317L19.221 0.715878ZM19.3954 1.46468H19.2283C18.5685 1.47357 17.911 1.54544 17.2648 1.67932C18.5475 2.23798 19.6744 3.10118 20.5479 4.19404C21.077 4.84785 21.5159 5.56977 21.8528 6.34046C21.9796 6.63559 22.065 6.8856 22.1126 7.07829C22.1369 7.17585 22.154 7.25756 22.1589 7.34293C22.1634 7.39696 22.1589 7.45137 22.1455 7.50391L22.1382 7.51854C22.1735 8.49784 21.9235 9.16128 21.893 10.0955C21.8699 10.7735 22.0479 11.5699 22.0918 12.437C22.1333 13.2541 22.0321 14.1505 21.4857 15.031C21.5312 15.0847 21.5751 15.1383 21.6174 15.192C23.0626 12.9846 24.1053 10.5406 24.6602 8.45882C24.9566 7.33683 25.1151 6.32094 25.1285 5.51604C25.1407 4.71113 24.9858 4.12697 24.7883 3.88428C23.2419 1.96592 21.1503 1.4781 19.3954 1.46468ZM13.8769 1.75006C12.5147 1.7525 11.5366 2.15251 10.7963 2.75009C10.0317 3.36841 9.51945 4.21356 9.18286 5.08066C8.85706 5.94719 8.65785 6.85616 8.59138 7.77953L8.60723 7.77099C9.01822 7.54659 9.55848 7.32342 10.1365 7.19414C10.7158 7.06487 11.339 7.02463 11.9037 7.23683C12.4683 7.44903 12.9354 7.94905 13.1049 8.70761C13.9159 12.3492 12.8525 13.7029 12.4598 14.7237C12.3125 15.0941 12.1855 15.4723 12.0793 15.8566C12.1281 15.8428 12.1773 15.833 12.2269 15.8274C12.4411 15.8158 12.6548 15.8577 12.8488 15.9493C13.244 16.1079 13.5147 16.4396 13.6611 16.8201C13.6993 16.9209 13.7265 17.0266 13.7428 17.1372C13.759 17.1835 13.7668 17.2311 13.7659 17.2798C13.7221 18.6723 13.727 20.0659 13.7806 21.458C13.8074 22.0605 13.8464 22.5898 13.8964 23.0081C13.9452 23.4252 14.0159 23.7423 14.0611 23.8496C14.2074 24.2081 14.4233 24.6764 14.8135 24.9947C15.2038 25.313 15.7611 25.524 16.7819 25.3118C17.6673 25.1277 18.2136 24.8728 18.5795 24.5033C18.9429 24.1362 19.1612 23.6252 19.3003 22.841C19.5088 21.6666 19.9283 18.2628 19.9783 17.6213C19.9564 17.1396 20.0296 16.7676 20.1881 16.4847C20.3527 16.1944 20.6064 16.0164 20.8247 15.92C20.9345 15.8713 21.0369 15.8396 21.1211 15.8164C21.0314 15.6923 20.9378 15.5711 20.8406 15.453C20.5252 15.084 20.2666 14.6701 20.0735 14.2249C19.9804 14.0417 19.8816 13.8615 19.7771 13.6846C19.6247 13.4163 19.4308 13.0809 19.2283 12.7041C18.8222 11.9492 18.3807 11.0345 18.1514 10.143C17.9234 9.25397 17.8892 8.33321 18.4746 7.68318C18.9942 7.10634 19.9039 6.8673 21.2711 7.00145C21.2308 6.88438 21.2064 6.78681 21.1381 6.63071C20.8296 5.92214 20.4263 5.25874 19.9393 4.65869C18.7807 3.22206 16.9063 1.79762 14.0086 1.75128H13.8769V1.75006ZM6.223 1.80738C6.07666 1.80738 5.93031 1.81144 5.78397 1.81957C4.62051 1.88421 3.52048 2.21227 2.73386 3.02205C1.94481 3.83062 1.4265 5.15749 1.5387 7.35512C1.56187 7.76977 1.74847 8.93567 2.06799 10.3186C2.38751 11.7041 2.84118 13.3322 3.3851 14.77C3.92903 16.2091 4.59002 17.4616 5.21687 18.0543C5.53274 18.3506 5.80714 18.4701 6.05593 18.4604C6.30593 18.4482 6.60594 18.3091 6.97425 17.8811C7.64499 17.0962 8.34049 16.3328 9.05968 15.592C8.55153 15.1659 8.16035 14.6173 7.92306 13.998C7.6877 13.3847 7.61625 12.7205 7.71574 12.0711C7.83403 11.2443 7.84989 10.4711 7.83647 9.86131C7.82184 9.26616 7.77793 8.87103 7.77793 8.62346V8.58931C7.77668 7.30041 8.00761 6.02182 8.45966 4.8148C8.78163 3.98306 9.26213 3.13791 9.98289 2.45374C9.27555 2.22812 8.01941 1.88421 6.6596 1.81957C6.51339 1.81174 6.36699 1.80768 6.22056 1.80738H6.223ZM20.5088 7.71245C19.7271 7.72221 19.2881 7.91856 19.0576 8.17466C18.7307 8.53809 18.7002 9.1747 18.9027 9.96009C19.1051 10.7455 19.521 11.6248 19.9137 12.3541C20.1088 12.7199 20.2991 13.0492 20.4527 13.3151C20.6076 13.5834 20.721 13.7736 20.7893 13.9371C20.8544 14.0842 20.9227 14.2188 20.9942 14.3407C21.2967 13.72 21.3516 13.1114 21.3198 12.476C21.2796 11.6906 21.0918 10.8869 21.1198 10.0735C21.1503 9.12226 21.3442 8.5015 21.3613 7.76611C21.0784 7.73164 20.7938 7.71373 20.5088 7.71245ZM11.0207 7.84051C10.7818 7.84232 10.5438 7.87013 10.3109 7.92344C9.84794 8.0326 9.40109 8.2015 8.98163 8.42589C8.84098 8.49906 8.70683 8.58403 8.57918 8.68078L8.55479 8.70273C8.56211 8.86615 8.59503 9.2625 8.60967 9.84423C8.62186 10.4821 8.60723 11.2955 8.4804 12.1736C8.20478 14.0858 9.63409 15.6688 11.3146 15.6713C11.4122 15.2786 11.5744 14.881 11.7354 14.4615C12.2037 13.2382 13.1245 12.3468 12.3488 8.86493C12.222 8.2954 11.9708 8.0649 11.6244 7.93441C11.4305 7.86707 11.226 7.83526 11.0207 7.84051ZM20.143 8.06856H20.2015C20.2779 8.071 20.3471 8.07913 20.4088 8.09295C20.4649 8.10423 20.5186 8.12528 20.5674 8.15515C20.5896 8.16823 20.6088 8.18586 20.6237 8.20687C20.6386 8.22789 20.6489 8.25183 20.654 8.27711V8.28686C20.6572 8.34046 20.6426 8.39362 20.6125 8.43809C20.5785 8.49958 20.5358 8.55585 20.4857 8.60517C20.3675 8.73058 20.2116 8.81407 20.0418 8.84298C19.8752 8.8627 19.7072 8.82156 19.5686 8.72712C19.5128 8.69028 19.4623 8.64596 19.4186 8.59541C19.3816 8.55592 19.3562 8.50696 19.3454 8.45394C19.3427 8.42786 19.3457 8.40151 19.3541 8.37668C19.3626 8.35185 19.3762 8.32912 19.3942 8.31003C19.4332 8.26911 19.479 8.23527 19.5295 8.21003C19.7227 8.12134 19.9317 8.0724 20.1442 8.06612L20.143 8.06856ZM11.1329 8.25637C11.1939 8.25637 11.2577 8.26125 11.3244 8.27101C11.5 8.2954 11.6573 8.34052 11.7768 8.4076C11.8354 8.43768 11.8866 8.47711 11.9305 8.5259C11.9533 8.55273 11.9704 8.5824 11.9817 8.61492C11.9931 8.64744 11.9968 8.68118 11.9927 8.71615C11.9816 8.78081 11.9515 8.84069 11.9061 8.8881C11.8589 8.94491 11.8034 8.99425 11.7415 9.03445C11.59 9.13759 11.4063 9.18223 11.2244 9.16006C11.0398 9.13027 10.8702 9.04072 10.7414 8.90518C10.6879 8.85059 10.642 8.78906 10.6049 8.72224C10.5669 8.66376 10.5501 8.59403 10.5573 8.52468C10.5744 8.40272 10.678 8.34174 10.7768 8.30516C10.891 8.26893 11.0109 8.25405 11.1305 8.26125L11.1329 8.25637ZM21.5723 16.4664H21.5686C21.3991 16.5274 21.2601 16.5518 21.1418 16.6006C21.0239 16.6443 20.9263 16.7298 20.8674 16.8408C20.7942 16.9689 20.7332 17.1969 20.7515 17.5847C20.8041 17.6194 20.8617 17.6457 20.9223 17.6628C21.1186 17.7213 21.4491 17.7604 21.8186 17.7543C22.5528 17.7457 23.4577 17.5799 23.9382 17.3628C24.3321 17.1847 24.698 16.953 25.0248 16.6749C23.4187 16.9969 22.5126 16.9115 21.9552 16.6884C21.8178 16.6323 21.6889 16.5584 21.5723 16.4664ZM12.3183 16.5701H12.2939C12.233 16.5749 12.1439 16.5945 11.9732 16.7798C11.5707 17.2164 11.4317 17.4896 11.1 17.7457C10.7707 18.0018 10.3402 18.1372 9.48165 18.3079C9.20969 18.3616 9.05481 18.4213 8.94992 18.4689C8.98407 18.4957 8.98041 18.5031 9.03041 18.5287C9.15603 18.5957 9.31823 18.6543 9.4475 18.6872C9.81703 18.7762 10.4231 18.8811 11.0561 18.7762C11.689 18.6714 12.3464 18.3774 12.9074 17.614C13.0049 17.4823 13.0147 17.2872 12.9354 17.0774C12.8537 16.8701 12.6781 16.6896 12.5537 16.6384C12.4795 16.6034 12.3999 16.5811 12.3183 16.5725V16.5701Z" fill="#0CA45A"/>
</svg>
