<svg width="30" height="30" viewBox="0 0 30 30" fill="none" xmlns="http://www.w3.org/2000/svg">
<path d="M29.2545 11.1431C28.7235 9.11062 27.7545 7.51312 25.722 7.51312H23.0145V10.7081C23.0145 13.1756 20.8845 15.2561 18.6105 15.2561H11.397C9.414 15.2561 7.8645 16.9511 7.8645 18.9341V25.7591C7.8645 27.6446 9.5595 28.8071 11.397 29.4356C13.6245 30.1136 15.801 30.2591 18.5595 29.4356C20.3505 28.9031 22.0935 27.8876 22.0935 25.7576V23.0471H14.979V22.1771H25.722C27.7545 22.1771 28.578 20.7251 29.2545 18.5471C29.9805 16.1756 29.9805 13.9976 29.2545 11.1431ZM18.9945 24.6926C19.722 24.6926 20.3505 25.3226 20.3505 26.0486C20.3505 26.7746 19.7205 27.4031 18.996 27.4031C18.27 27.4511 17.64 26.7731 17.64 26.0486C17.592 25.3226 18.2205 24.6926 18.996 24.6926M11.061 14.3366H18.2235C20.2065 14.3366 21.756 12.6911 21.756 10.6586V3.93112C21.756 2.04412 20.1105 0.592125 18.222 0.253125C15.852 -0.084375 13.2375 -0.084375 11.061 0.253125C8.0115 0.785625 7.527 1.89862 7.527 3.93112V6.64162H14.6895V7.51162H4.9125C2.88 7.51162 1.041 8.81962 0.5085 11.1416C-0.1695 13.8521 -0.1695 15.5456 0.5085 18.3536C1.041 20.4836 2.2035 21.9836 4.332 21.9836H6.6555V18.7406C6.606 16.3691 8.688 14.3366 11.0595 14.3366M10.6245 4.80263C10.2674 4.79535 9.92693 4.65036 9.67423 4.39794C9.42153 4.14552 9.27617 3.80521 9.2685 3.44812C9.2685 2.72212 9.8985 2.09212 10.623 2.09212C11.3475 2.09212 11.979 2.72212 11.979 3.44812C11.979 4.17412 11.3505 4.80263 10.6245 4.80263Z" fill="#F7F1D7"/>
</svg>
