<svg width="34" height="30" viewBox="0 0 34 30" fill="none" xmlns="http://www.w3.org/2000/svg">
<path d="M27.7235 9.72356C27.3737 9.60316 27.0112 9.48925 26.638 9.38151C26.6994 9.13118 26.7557 8.88408 26.8057 8.64118C27.6274 4.65276 27.0902 1.43966 25.2557 0.38177C23.4967 -0.632606 20.6199 0.425044 17.7145 2.95351C17.4351 3.19665 17.155 3.45407 16.8749 3.72385C16.6883 3.54536 16.502 3.37286 16.3162 3.20787C13.2713 0.504268 10.2192 -0.635067 8.38653 0.425884C6.62919 1.4432 6.10876 4.46382 6.84837 8.24368C6.9198 8.60877 7.00328 8.98161 7.09769 9.36069C6.66574 9.48331 6.24873 9.61403 5.84972 9.75309C2.27987 10.9977 0 12.9483 0 14.9716C0 17.0613 2.44744 19.1572 6.16572 20.4281C6.45915 20.5284 6.76363 20.6233 7.07741 20.7133C6.97555 21.1233 6.88697 21.525 6.8126 21.9169C6.10738 25.6312 6.65811 28.5804 8.41078 29.5913C10.2211 30.6353 13.2594 29.5622 16.2179 26.9761C16.4517 26.7717 16.6864 26.5549 16.9215 26.3277C17.2262 26.6211 17.5304 26.8988 17.8331 27.1593C20.6987 29.6253 23.529 30.6211 25.2801 29.6073C27.0886 28.5604 27.6764 25.3922 26.9133 21.5375C26.855 21.2431 26.7872 20.9424 26.711 20.6363C26.9244 20.5732 27.1339 20.5081 27.3381 20.4404C31.2036 19.1596 33.7186 17.0892 33.7186 14.9716C33.7186 12.941 31.3652 10.9772 27.7235 9.72356ZM26.8851 19.0731C26.7007 19.1341 26.5115 19.1931 26.3187 19.2503C25.892 17.8994 25.3161 16.4628 24.6113 14.9786C25.2838 13.5298 25.8375 12.1116 26.2523 10.7694C26.5972 10.8692 26.932 10.9745 27.2546 11.0856C30.3749 12.1597 32.2782 13.7479 32.2782 14.9716C32.2782 16.2751 30.2227 17.9672 26.8851 19.0731ZM25.5002 21.8173C25.8376 23.5217 25.8858 25.0628 25.6623 26.2675C25.4615 27.35 25.0576 28.0717 24.5583 28.3607C23.4956 28.9758 21.2232 28.1763 18.7725 26.0674C18.4915 25.8256 18.2085 25.5675 17.9246 25.2943C18.8747 24.2552 19.8243 23.0472 20.751 21.7056C22.3811 21.5609 23.9211 21.3245 25.3177 21.0016C25.3865 21.2791 25.4476 21.5512 25.5002 21.8173ZM11.4954 28.2545C10.4572 28.6211 9.63036 28.6316 9.13053 28.3434C8.06693 27.73 7.62478 25.362 8.2279 22.1855C8.29699 21.8218 8.37921 21.4481 8.47398 21.0661C9.85525 21.3716 11.384 21.5914 13.0179 21.7238C13.9509 23.0366 14.9279 24.2433 15.9125 25.2999C15.6974 25.5075 15.4831 25.7052 15.27 25.8915C13.9618 27.0351 12.6508 27.8464 11.4954 28.2545ZM6.63159 19.0651C4.98743 18.5032 3.62963 17.7728 2.69892 16.9758C1.86262 16.2596 1.44039 15.5486 1.44039 14.9716C1.44039 13.7438 3.2709 12.1777 6.32387 11.1133C6.69431 10.9841 7.08209 10.8624 7.48451 10.7481C7.90644 12.1206 8.45994 13.5556 9.12788 15.0066C8.45129 16.4793 7.88994 17.9371 7.46387 19.3257C7.17698 19.2432 6.89903 19.1565 6.63159 19.0651ZM8.26199 7.96705C7.62832 4.72856 8.04917 2.28556 9.1082 1.67253C10.2362 1.01947 12.7307 1.9506 15.3597 4.28503C15.5278 4.43423 15.6965 4.5904 15.8657 4.75197C14.886 5.80392 13.918 7.00153 12.9933 8.30658C11.4075 8.45357 9.88946 8.68968 8.49379 9.00586C8.40604 8.65289 8.32831 8.3061 8.26199 7.96705ZM22.8067 11.5585C22.473 10.9822 22.1305 10.4195 21.7813 9.87223C22.8572 10.0082 23.8879 10.1888 24.8559 10.4097C24.5653 11.3411 24.2031 12.3149 23.7767 13.3132C23.4709 12.7325 23.1474 12.147 22.8067 11.5585ZM16.8754 5.78141C17.5398 6.50122 18.2052 7.30487 18.8596 8.17682C18.2001 8.14567 17.5325 8.12946 16.8593 8.12946C16.1925 8.12946 15.5298 8.14531 14.8744 8.17592C15.5295 7.31207 16.2006 6.5095 16.8754 5.78141ZM10.9061 11.5685C10.5728 12.1464 10.2553 12.7287 9.95428 13.3121C9.53481 12.3173 9.17596 11.339 8.88283 10.3944C9.84487 10.1792 10.8708 10.0031 11.9398 9.86971C11.5856 10.4221 11.2403 10.989 10.9061 11.5685ZM11.9706 20.1762C10.8661 20.053 9.82476 19.886 8.86296 19.6767C9.16078 18.7153 9.52755 17.7161 9.9559 16.6999C10.2577 17.2829 10.5765 17.8654 10.9118 18.4446C11.2534 19.0346 11.6073 19.6126 11.9706 20.1762ZM16.9153 24.2633C16.2325 23.5267 15.5516 22.7119 14.8865 21.8355C15.5321 21.8608 16.1903 21.8737 16.8593 21.8737C17.5466 21.8737 18.226 21.8583 18.8947 21.8285C18.2381 22.7207 17.5752 23.5368 16.9153 24.2633ZM23.7905 16.6481C24.2411 17.6753 24.6211 18.6692 24.9227 19.6143C23.9451 19.8373 22.8895 20.0169 21.7774 20.1504C22.1274 19.5957 22.4729 19.0234 22.8124 18.4347C23.1559 17.8391 23.4821 17.2425 23.7905 16.6481ZM21.5647 17.7151C21.0376 18.629 20.4965 19.5014 19.9472 20.3249C18.9466 20.3964 17.9129 20.4333 16.8593 20.4333C15.81 20.4333 14.7893 20.4007 13.8065 20.3369C13.235 19.5026 12.6821 18.6276 12.1583 17.7229C11.636 16.8207 11.1554 15.9109 10.7198 15.0062C11.1553 14.0993 11.6347 13.1885 12.1541 12.2879C12.6748 11.3849 13.2227 10.5144 13.7889 9.68527C14.7917 9.60946 15.82 9.56991 16.8593 9.56991C17.9032 9.56991 18.9328 9.60977 19.9353 9.68623C20.4929 10.5093 21.0372 11.3772 21.56 12.2803C22.0887 13.1935 22.5744 14.0983 23.0136 14.9857C22.5757 15.8883 22.0911 16.8022 21.5647 17.7151ZM24.5362 1.62968C25.6653 2.28082 26.1044 4.90688 25.395 8.35045C25.3497 8.57018 25.2988 8.79399 25.2434 9.0208C23.8445 8.69802 22.3255 8.45783 20.735 8.30862C19.8085 6.98923 18.8484 5.78976 17.8847 4.75131C18.1438 4.50205 18.4025 4.26438 18.6602 4.04009C21.1495 1.87372 23.4761 1.01839 24.5362 1.62968ZM16.8593 11.9606C18.5222 11.9606 19.8703 13.3087 19.8703 14.9716C19.8703 16.6345 18.5222 17.9826 16.8593 17.9826C15.1964 17.9826 13.8484 16.6345 13.8484 14.9716C13.8484 13.3087 15.1964 11.9606 16.8593 11.9606Z" fill="#F7F1D7"/>
</svg>
