<svg width="30" height="30" viewBox="0 0 30 30" fill="none" xmlns="http://www.w3.org/2000/svg">
<path d="M22.9688 0H7.03125C3.148 0 0 3.148 0 7.03125V22.9688C0 26.852 3.148 30 7.03125 30H22.9688C26.852 30 30 26.852 30 22.9688V7.03125C30 3.148 26.852 0 22.9688 0Z" fill="#F7F1D7"/>
<path d="M14.8133 7.68788C11.5632 7.68788 9.53265 9.31225 8.71951 12.5623C9.93788 10.9378 11.3602 10.3286 12.9848 10.7348C13.9123 10.9659 14.5752 11.6385 15.3093 12.3839C16.5041 13.5963 17.887 15 20.907 15C24.1569 15 26.1876 13.3754 27.0008 10.1246C25.782 11.75 24.3602 12.3595 22.7353 11.9531C21.8079 11.7218 21.1458 11.0493 20.4108 10.304C19.2168 9.09154 17.8342 7.68788 14.8133 7.68788ZM8.71951 15C5.46964 15 3.4389 16.6246 2.62576 19.8754C3.84438 18.25 5.26613 17.6405 6.89101 18.0469C7.81859 18.2782 8.48147 18.9507 9.21558 19.696C10.4103 20.9085 11.7932 22.3121 14.8133 22.3121C18.0631 22.3121 20.0939 20.6878 20.907 17.4377C19.6883 19.0623 18.2664 19.6715 16.6416 19.2652C15.7142 19.0341 15.0521 18.3615 14.317 17.6161C13.123 16.4037 11.7405 15 8.71951 15Z" fill="#151518"/>
</svg>
