<svg width="30" height="30" viewBox="0 0 30 30" fill="none" xmlns="http://www.w3.org/2000/svg">
<path d="M0 0H29.9987V29.9987H0V0Z" fill="black"/>
<path d="M29.285 4.38618e-06H0.712471C0.618803 4.24203e-06 0.526054 0.0184742 0.439532 0.0543573C0.353009 0.0902404 0.274412 0.142832 0.208236 0.209124C0.142061 0.275415 0.0896069 0.354105 0.0538755 0.44069C0.0181441 0.527275 -0.000163232 0.620056 1.09847e-06 0.713724V29.2863C-0.000163561 29.3801 0.018185 29.4729 0.0539944 29.5596C0.0898039 29.6463 0.14237 29.725 0.208678 29.7913C0.274986 29.8576 0.353731 29.9102 0.440398 29.946C0.527065 29.9818 0.619948 30.0002 0.713721 30H29.2863C29.3801 30.0002 29.4729 29.9818 29.5596 29.946C29.6463 29.9102 29.725 29.8576 29.7913 29.7913C29.8576 29.725 29.9102 29.6463 29.946 29.5596C29.9818 29.4729 30.0002 29.3801 30 29.2863V0.712475C30 0.618701 29.9815 0.52585 29.9455 0.439245C29.9096 0.352641 29.8569 0.273988 29.7904 0.207796C29.724 0.141604 29.6452 0.0891764 29.5584 0.0535188C29.4717 0.0178611 29.3788 -0.000324644 29.285 4.38618e-06ZM17.8568 16.0318H14.2857V27.1414H11.4283V16.0318H7.85717V13.5707H17.8568V16.0318ZM18.6567 26.5064V23.5378C18.6567 23.5378 20.2792 24.7602 22.2253 24.7602C24.1715 24.7602 24.0965 23.4878 24.0965 23.3128C24.0965 21.4666 18.5817 21.4666 18.5817 17.3743C18.5817 11.8095 26.6176 14.0057 26.6176 14.0057L26.5176 16.6506C26.5176 16.6506 25.1702 15.7518 23.6478 15.7518C22.1253 15.7518 21.5766 16.4768 21.5766 17.2493C21.5766 19.2455 27.1414 19.0467 27.1414 23.064C27.1414 29.2513 18.6567 26.5076 18.6567 26.5076" fill="#0CA45A"/>
</svg>
