<svg width="22" height="25" viewBox="0 0 22 25" fill="none" xmlns="http://www.w3.org/2000/svg">
<path d="M18.374 1.5625H0V19.9365C0 20.8643 0.371094 21.7529 1.02539 22.4121C1.67969 23.0713 2.57324 23.4375 3.50098 23.4375H18.374C19.3018 23.4375 20.1904 23.0664 20.8496 22.4121C21.5088 21.7578 21.875 20.8643 21.875 19.9365V5.06348C21.875 4.13574 21.5039 3.24707 20.8496 2.58789C20.1953 1.92871 19.3018 1.5625 18.374 1.5625ZM16.2305 21.0645C15.8545 20.6494 15.6592 20.0537 15.6445 19.2773H17.1729C17.1826 19.9658 17.4219 20.3076 17.8955 20.3076C18.1348 20.3076 18.3057 20.2295 18.4082 20.0781C18.5059 19.9268 18.5547 19.6875 18.5547 19.3555C18.5547 19.0918 18.4912 18.8721 18.3594 18.7012C18.1885 18.4961 17.9639 18.335 17.7148 18.2373L17.1484 17.9688C16.6455 17.7295 16.2793 17.4414 16.0498 17.1094C15.8301 16.7773 15.7227 16.3135 15.7227 15.7227C15.7227 15.0586 15.918 14.5215 16.2988 14.1064C16.6943 13.6914 17.2314 13.4863 17.9199 13.4863C18.584 13.4863 19.0967 13.6914 19.458 14.0967C19.8242 14.5068 20.0195 15.0879 20.0342 15.8496H18.5645C18.5742 15.6006 18.5205 15.3516 18.418 15.127C18.335 14.9609 18.1738 14.8779 17.9297 14.8779C17.5 14.8779 17.2852 15.1318 17.2852 15.6445C17.2852 15.9033 17.3389 16.1035 17.4414 16.2598C17.5928 16.4307 17.7832 16.5625 17.998 16.6406L18.54 16.8799C19.1016 17.1387 19.502 17.4512 19.751 17.8271C20 18.2031 20.1221 18.7061 20.1221 19.3408C20.1221 20.0977 19.9268 20.6787 19.5215 21.084C19.1211 21.4893 18.5693 21.6943 17.8564 21.6943C17.1436 21.6943 16.6064 21.4893 16.2256 21.0742L16.2305 21.0645ZM11.2988 21.0645C10.9229 20.6494 10.7275 20.0537 10.7129 19.2773H12.2412C12.251 19.9658 12.4902 20.3076 12.9639 20.3076C13.2031 20.3076 13.374 20.2295 13.4717 20.0781C13.5693 19.9268 13.6182 19.6875 13.6182 19.3555C13.6182 19.0918 13.5547 18.8721 13.4277 18.7012C13.2568 18.4961 13.0322 18.335 12.7832 18.2373L12.2168 17.9688C11.7139 17.7295 11.3477 17.4414 11.1182 17.1094C10.8984 16.7773 10.791 16.3135 10.791 15.7227C10.791 15.0586 10.9863 14.5215 11.3672 14.1064C11.7627 13.6914 12.2998 13.4863 12.9883 13.4863C13.6523 13.4863 14.165 13.6914 14.5215 14.0967C14.8926 14.5068 15.083 15.0879 15.1025 15.8496H13.6328C13.6426 15.6006 13.5889 15.3516 13.4863 15.127C13.4033 14.9609 13.2422 14.8779 12.998 14.8779C12.5684 14.8779 12.3535 15.1318 12.3535 15.6445C12.3535 15.9033 12.4072 16.1035 12.5098 16.2598C12.6611 16.4307 12.8516 16.5625 13.0664 16.6406L13.6084 16.8799C14.1699 17.1387 14.5703 17.4512 14.8193 17.8271C15.0684 18.2031 15.1904 18.7061 15.1904 19.3408C15.1904 20.0977 14.9902 20.6787 14.5898 21.084C13.9893 21.6919 13.6377 21.6943 12.9248 21.6943C12.2119 21.6943 11.6748 21.4893 11.2939 21.0742L11.2988 21.0645ZM6.14258 21.1182C5.73242 20.7422 5.53223 20.1807 5.53223 19.4336V15.752C5.53223 15.0098 5.74707 14.4482 6.17676 14.0625C6.61133 13.6816 7.1875 13.4863 7.89551 13.4863C8.58398 13.4863 9.12598 13.6816 9.52637 14.0723C9.93164 14.4629 10.1367 15.0488 10.1367 15.8252V16.1182H8.52051V15.835C8.52051 15.5371 8.45703 15.3125 8.3252 15.1709C8.27148 15.0977 8.19824 15.0391 8.11523 15C8.03223 14.9609 7.94434 14.9414 7.85156 14.9463C7.58789 14.9463 7.40234 15.0342 7.29492 15.2197C7.18262 15.4736 7.13379 15.7471 7.14844 16.0205V19.2188C7.14844 19.8877 7.38281 20.2246 7.85156 20.2344C8.07129 20.2344 8.2373 20.1562 8.34961 20C8.47168 19.7998 8.53027 19.5703 8.52051 19.3359V19.0967H10.1367V19.3457C10.1367 19.8633 10.0342 20.2979 9.83398 20.6445C9.63867 20.9814 9.35059 21.2549 8.99902 21.4258C8.62305 21.6064 8.21289 21.6943 7.79785 21.6846C7.10449 21.6846 6.55273 21.4941 6.14746 21.1182H6.14258Z" fill="#F7F1D7"/>
</svg>
