<svg width="16" height="23" viewBox="0 0 16 23" fill="none" xmlns="http://www.w3.org/2000/svg">
<path fill-rule="evenodd" clip-rule="evenodd" d="M3.37716 8.28105C2.934 8.28105 2.49519 8.36403 2.08578 8.52527C1.67636 8.6865 1.30435 8.92282 0.990995 9.22075C0.67764 9.51867 0.429073 9.87235 0.259486 10.2616C0.0898995 10.6509 0.00261459 11.0681 0.00261459 11.4894C0.00261459 11.9107 0.0898995 12.3279 0.259486 12.7172C0.429073 13.1064 0.67764 13.4601 0.990995 13.758C1.30435 14.0559 1.67636 14.2923 2.08578 14.4535C2.49519 14.6147 2.934 14.6977 3.37716 14.6977H6.7517V8.28105H3.37716ZM6.7517 6.4179H3.37716C2.482 6.4179 1.6235 6.07982 0.990533 5.47802C0.357561 4.87623 0.0019611 4.06002 0.0019611 3.20895C0.0019611 2.35789 0.357561 1.54168 0.990533 0.93988C1.6235 0.338085 2.482 0 3.37716 0H6.7517V6.4179ZM8.71136 0V6.4179H12.0859C12.9696 6.40138 13.8112 6.05603 14.4299 5.45603C15.0487 4.85604 15.3953 4.04925 15.3953 3.20895C15.3953 2.36866 15.0487 1.56187 14.4299 0.961874C13.8112 0.361879 12.9696 0.0165297 12.0859 0H8.71136ZM12.0859 8.27981C11.2001 8.2797 10.3498 8.61072 9.71848 9.20143C9.08715 9.79214 8.72542 10.5952 8.71136 11.4372V11.5403C8.72218 12.1725 8.92924 12.7876 9.30655 13.3083C9.68387 13.829 10.2146 14.2321 10.8321 14.467C11.4496 14.7018 12.1263 14.758 12.7772 14.6283C13.4282 14.4987 14.0243 14.1891 14.4908 13.7384C14.9572 13.2877 15.2732 12.716 15.3991 12.0951C15.5249 11.4742 15.4549 10.8318 15.198 10.2486C14.941 9.6654 14.5086 9.16738 13.9549 8.81709C13.4012 8.46681 12.751 8.27989 12.0859 8.27981ZM3.37716 16.5609C2.70942 16.5606 2.05661 16.7486 1.50128 17.1012C0.945952 17.4537 0.513058 17.9549 0.257348 18.5413C0.00163779 19.1278 -0.0654021 19.7731 0.0647082 20.3958C0.194818 21.0185 0.516234 21.5905 0.988302 22.0395C1.46037 22.4885 2.06189 22.7943 2.71677 22.9182C3.37166 23.0422 4.0505 22.9787 4.66743 22.7358C5.28436 22.4929 5.81167 22.0815 6.18267 21.5537C6.55368 21.0259 6.7517 20.4053 6.7517 19.7704V16.5609H3.37716Z" fill="#F7F1D7"/>
</svg>
