<svg width="23" height="23" viewBox="0 0 23 23" fill="none" xmlns="http://www.w3.org/2000/svg">
<mask id="mask0_119_305" style="mask-type:luminance" maskUnits="userSpaceOnUse" x="0" y="0" width="23" height="23">
<path d="M0 0H23V23H0V0Z" fill="white"/>
</mask>
<g mask="url(#mask0_119_305)">
<path d="M4.86816 0H5.90508V1.02446H6.85383V0H7.89075V3.10117H6.85383V2.06329H5.90508V3.10117H4.86912L4.86816 0ZM9.2535 1.02829H8.34116V0H11.2037V1.02829H10.2904V3.10117H9.2535V1.02829ZM11.658 0H12.739L13.404 1.08963L14.0682 0H15.1492V3.10117H14.117V1.564L13.404 2.66704H13.3858L12.6719 1.56496V3.10117H11.658V0ZM15.6647 0H16.7026V2.07671H18.1593V3.10212H15.6647V0Z" fill="#F7F1D7"/>
<path fill-rule="evenodd" clip-rule="evenodd" d="M4.83575 21.1524L2.875 4.52051H20.125L18.1633 21.1505L11.4904 23.0001L4.83575 21.1524ZM8.80037 12.0482L8.61446 9.95905H16.4201L16.6022 7.91972H6.38633L6.93642 14.0885H14.006L13.7693 16.7335L11.4943 17.3488H11.4923L9.22108 16.7354L9.07542 15.1091H7.0265L7.31208 18.3119L11.4904 19.4715L15.6755 18.3119L16.1853 12.5964L16.2351 12.0492L8.80037 12.0482Z" fill="#F7F1D7"/>
</g>
</svg>
