<svg width="25" height="25" viewBox="0 0 25 25" fill="none" xmlns="http://www.w3.org/2000/svg">
<path d="M1.5625 1.5625V23.4375H23.4375V1.5625H1.5625ZM13.4672 18.6227C13.4672 20.7516 12.2172 21.7234 10.3961 21.7234C8.75078 21.7234 7.79844 20.8742 7.31016 19.8438L8.98516 18.8328C9.30781 19.4039 9.60078 19.8875 10.3086 19.8875C10.982 19.8875 11.4117 19.6234 11.4117 18.5938V11.6062H13.4672V18.6227ZM18.3297 21.7234C16.4203 21.7234 15.1852 20.8156 14.5844 19.6234L16.2594 18.657C16.6992 19.375 17.275 19.907 18.2859 19.907C19.1352 19.907 19.6828 19.482 19.6828 18.8914C19.6828 18.1883 19.1258 17.9391 18.1836 17.5242L17.6711 17.3047C16.1867 16.675 15.2055 15.8789 15.2055 14.2039C15.2055 12.6609 16.382 11.4891 18.2133 11.4891C19.5219 11.4891 20.4594 11.943 21.1336 13.1344L19.532 14.1602C19.1805 13.5305 18.7992 13.2812 18.2086 13.2812C17.6086 13.2812 17.2273 13.6625 17.2273 14.1602C17.2273 14.7758 17.6086 15.0242 18.4922 15.4102L19.0047 15.6297C20.7531 16.3766 21.7344 17.1438 21.7344 18.8617C21.7344 20.7078 20.2789 21.7227 18.3305 21.7227L18.3297 21.7234Z" fill="#F7F1D7"/>
</svg>
