<svg width="26" height="25" viewBox="0 0 26 25" fill="none" xmlns="http://www.w3.org/2000/svg">
<path d="M18.1854 1.04163C17.2685 1.05021 16.3568 1.1798 15.4739 1.42704L15.4114 1.44579C14.8555 1.35047 14.2931 1.29789 13.7291 1.2885C12.5698 1.26871 11.5729 1.54163 10.7708 1.99683C9.97914 1.73017 8.33747 1.27079 6.60727 1.36246C5.40206 1.426 4.08747 1.78121 3.11352 2.77913C2.14164 3.77704 1.6281 5.32079 1.73643 7.42183C1.7656 8.00204 1.93539 8.94683 2.21872 10.1718C2.49997 11.3958 2.89789 12.8281 3.39268 14.1354C3.88747 15.4427 4.43018 16.6187 5.2781 17.4166C5.70102 17.8166 6.28331 18.1531 6.96977 18.125C7.45206 18.1062 7.88852 17.901 8.26456 17.5979C8.44789 17.8322 8.64372 17.9343 8.82185 18.0291C9.04581 18.1479 9.26456 18.2291 9.4906 18.2833C10.1166 18.4438 10.7685 18.4761 11.4073 18.3781C11.6854 18.3333 11.9781 18.2458 12.2698 18.1208C12.2802 18.4354 12.2927 18.7437 12.3062 19.0562C12.3458 20.0458 12.3718 20.9593 12.6781 21.7604C12.7271 21.8916 12.8614 22.5656 13.3937 23.1604C13.925 23.7562 14.9666 24.127 16.1521 23.8812C16.9885 23.7073 18.0531 23.3937 18.7593 22.4187C19.4573 21.4541 19.7729 20.0708 19.8354 17.826C19.851 17.7052 19.8698 17.602 19.8896 17.5052L20.0562 17.5198H20.075C20.9677 17.5593 21.9364 17.4364 22.7458 17.0718C23.4625 16.7489 24.0041 16.4239 24.3989 15.8458C24.4979 15.7031 24.6062 15.5302 24.6354 15.2312C24.6646 14.9343 24.4896 14.4677 24.1968 14.2531C23.6104 13.8218 23.2427 13.9854 22.8479 14.0656C22.459 14.1489 22.0646 14.1951 21.6646 14.2041C22.8031 12.3458 23.6187 10.3708 24.0843 8.62288C24.3593 7.59163 24.5146 6.64058 24.5271 5.80933C24.5396 4.97808 24.4698 4.24163 23.9562 3.60413C22.351 1.61454 20.0937 1.06454 18.3479 1.04579C18.2937 1.0444 18.2396 1.04406 18.1854 1.04475V1.04163ZM18.1396 1.65308C19.7906 1.63746 21.901 2.08746 23.4156 3.96558C23.7562 4.38746 23.8573 5.00413 23.8458 5.76454C23.8333 6.52392 23.6885 7.43225 23.4239 8.42808C22.9104 10.3573 21.9396 12.6052 20.5718 14.6239C20.6204 14.6576 20.6729 14.6852 20.7281 14.7062C21.0135 14.8208 21.6635 14.9187 22.9625 14.6604C23.2885 14.5927 23.5281 14.5479 23.776 14.7312C23.8353 14.7804 23.8825 14.8427 23.9137 14.9132C23.945 14.9837 23.9595 15.0604 23.9562 15.1375C23.9424 15.2538 23.8983 15.3645 23.8281 15.4583C23.5781 15.8239 23.0823 16.1708 22.4468 16.4562C21.8854 16.7104 21.0791 16.8427 20.3646 16.851C20.0062 16.8541 19.676 16.827 19.3958 16.7427L19.3771 16.7364C19.2687 17.7479 19.0198 19.7468 18.8583 20.6583C18.7281 21.3937 18.501 21.9781 18.0666 22.4156C17.6333 22.8531 17.0208 23.1166 16.1958 23.2885C15.1739 23.501 14.4291 23.2718 13.9489 22.8791C13.4698 22.4885 13.25 21.9687 13.1177 21.65C13.0271 21.4312 12.9802 21.1468 12.9343 20.7666C12.8839 20.3114 12.8502 19.8545 12.8333 19.3968C12.8034 18.5944 12.7937 17.7914 12.8041 16.9885C12.3771 17.3666 11.8458 17.6187 11.276 17.7135C10.5989 17.825 9.99268 17.7156 9.63122 17.6281C9.45402 17.5844 9.28266 17.5197 9.12081 17.4354C8.95206 17.3489 8.79268 17.251 8.68643 17.0573C8.62383 16.9467 8.60382 16.817 8.63018 16.6927C8.66429 16.5664 8.73987 16.4552 8.84476 16.377C9.0406 16.2229 9.29789 16.1375 9.68643 16.0583C10.3948 15.9177 10.6416 15.8208 10.7916 15.7052C10.9198 15.6062 11.0646 15.4062 11.3208 15.1114L11.3177 15.0729C10.861 15.0595 10.4133 14.9426 10.0083 14.7312C9.86143 14.8812 9.10726 15.6552 8.18747 16.7281C7.80101 17.177 7.37393 17.4343 6.92289 17.4531C6.47185 17.4718 6.06456 17.251 5.71872 16.926C5.02601 16.2739 4.47393 15.152 3.99268 13.8843C3.51352 12.6156 3.12185 11.2031 2.84477 9.99996C2.5656 8.79683 2.40102 7.82704 2.3781 7.35933C2.27393 5.37079 2.7531 4.03121 3.57602 3.18642C4.39893 2.34163 5.52602 2.02079 6.62602 1.96038C8.59893 1.84996 10.4729 2.51767 10.8521 2.66142C11.5823 2.18017 12.5229 1.88017 13.6989 1.89892C14.2564 1.90667 14.8112 1.97655 15.3531 2.10725L15.3729 2.09892C15.6118 2.01767 15.8541 1.94961 16.1 1.89475C16.7692 1.74369 17.4525 1.66339 18.1385 1.65517L18.1396 1.65308ZM18.2885 2.29267H18.1458C17.5822 2.30026 17.0206 2.36165 16.4687 2.476C17.5643 2.95317 18.5268 3.69047 19.2729 4.62392C19.7248 5.18236 20.0997 5.79898 20.3875 6.45725C20.4958 6.70933 20.5687 6.92288 20.6093 7.08746C20.6302 7.17079 20.6448 7.24058 20.6489 7.3135C20.6528 7.35965 20.6489 7.40612 20.6375 7.451L20.6312 7.4635C20.6614 8.29996 20.4479 8.86663 20.4218 9.66454C20.4021 10.2437 20.5541 10.9239 20.5916 11.6645C20.6271 12.3625 20.5406 13.1281 20.0739 13.8802C20.1128 13.926 20.1503 13.9718 20.1864 14.0177C21.4208 12.1323 22.3114 10.0448 22.7854 8.26663C23.0385 7.30829 23.1739 6.44058 23.1854 5.75308C23.1958 5.06558 23.0635 4.56663 22.8948 4.35933C21.5739 2.72079 19.7875 2.30413 18.2885 2.29267ZM13.575 2.53642C12.4114 2.5385 11.576 2.88017 10.9437 3.39058C10.2906 3.91871 9.8531 4.64058 9.5656 5.38121C9.28732 6.12135 9.11717 6.89773 9.06039 7.68642L9.07393 7.67913C9.42497 7.48746 9.88643 7.29683 10.3802 7.18642C10.875 7.076 11.4073 7.04163 11.8896 7.22288C12.3718 7.40413 12.7708 7.83121 12.9156 8.47913C13.6083 11.5895 12.7 12.7458 12.3646 13.6177C12.2387 13.9341 12.1302 14.2571 12.0396 14.5854C12.0812 14.5736 12.1232 14.5652 12.1656 14.5604C12.3486 14.5505 12.5312 14.5863 12.6968 14.6645C13.0343 14.8 13.2656 15.0833 13.3906 15.4083C13.4232 15.4944 13.4465 15.5847 13.4604 15.6791C13.4743 15.7187 13.4809 15.7593 13.4802 15.801C13.4427 16.9904 13.4469 18.1807 13.4927 19.3697C13.5156 19.8843 13.5489 20.3364 13.5916 20.6937C13.6333 21.05 13.6937 21.3208 13.7323 21.4125C13.8573 21.7187 14.0416 22.1187 14.375 22.3906C14.7083 22.6625 15.1843 22.8427 16.0562 22.6614C16.8125 22.5041 17.2791 22.2864 17.5916 21.9708C17.9021 21.6572 18.0885 21.2208 18.2073 20.551C18.3854 19.5479 18.7437 16.6406 18.7864 16.0927C18.7677 15.6812 18.8302 15.3635 18.9656 15.1218C19.1062 14.8739 19.3229 14.7218 19.5093 14.6395C19.6031 14.5979 19.6906 14.5708 19.7625 14.551C19.6859 14.445 19.606 14.3415 19.5229 14.2406C19.2535 13.9255 19.0327 13.5719 18.8677 13.1916C18.7882 13.0352 18.7038 12.8813 18.6146 12.7302C18.4843 12.501 18.3187 12.2145 18.1458 11.8927C17.7989 11.2479 17.4218 10.4666 17.226 9.70517C17.0312 8.94579 17.0021 8.15933 17.5021 7.60413C17.9458 7.11142 18.7229 6.90725 19.8906 7.02183C19.8562 6.92183 19.8354 6.8385 19.7771 6.70517C19.5136 6.09995 19.1691 5.53331 18.7531 5.02079C17.7635 3.79371 16.1625 2.57704 13.6875 2.53746H13.575V2.53642ZM7.03747 2.58538C6.91247 2.58538 6.78747 2.58885 6.66247 2.59579C5.66872 2.651 4.72914 2.93121 4.05727 3.62288C3.38331 4.3135 2.9406 5.44683 3.03643 7.32392C3.05622 7.67808 3.2156 8.67392 3.48852 9.85517C3.76143 11.0385 4.14893 12.4291 4.61352 13.6573C5.0781 14.8864 5.64268 15.9562 6.1781 16.4625C6.44789 16.7156 6.68227 16.8177 6.89477 16.8093C7.10831 16.7989 7.36456 16.6802 7.67914 16.3145C8.25205 15.6441 8.8461 14.9921 9.46039 14.3593C9.02636 13.9954 8.69223 13.5268 8.48956 12.9979C8.28853 12.474 8.2275 11.9067 8.31247 11.352C8.41352 10.6458 8.42706 9.98538 8.4156 9.46454C8.4031 8.95621 8.3656 8.61871 8.3656 8.40725V8.37808C8.36452 7.27718 8.56177 6.18509 8.94789 5.15413C9.22289 4.44371 9.63331 3.72183 10.2489 3.13746C9.64477 2.94475 8.57185 2.651 7.41039 2.59579C7.2855 2.5891 7.16046 2.58563 7.03539 2.58538H7.03747ZM19.2396 7.62913C18.5718 7.63746 18.1968 7.80517 18 8.02392C17.7208 8.33433 17.6948 8.87808 17.8677 9.54892C18.0406 10.2198 18.3958 10.9708 18.7312 11.5937C18.8979 11.9062 19.0604 12.1875 19.1916 12.4145C19.3239 12.6437 19.4208 12.8062 19.4791 12.9458C19.5347 13.0715 19.593 13.1864 19.6541 13.2906C19.9125 12.7604 19.9593 12.2406 19.9323 11.6979C19.8979 11.027 19.7375 10.3406 19.7614 9.64579C19.7875 8.83329 19.9531 8.30308 19.9677 7.67496C19.7261 7.64552 19.4829 7.63021 19.2396 7.62913ZM11.1354 7.7385C10.9313 7.74005 10.7281 7.7638 10.5291 7.80933C10.1337 7.90258 9.752 8.04684 9.39372 8.2385C9.27358 8.301 9.159 8.37357 9.04997 8.45621L9.02914 8.47496C9.03539 8.61454 9.06352 8.95308 9.07602 9.44996C9.08643 9.99475 9.07393 10.6895 8.9656 11.4395C8.73018 13.0729 9.95102 14.425 11.3864 14.427C11.4698 14.0916 11.6083 13.752 11.7458 13.3937C12.1458 12.3489 12.9323 11.5875 12.2698 8.6135C12.1614 8.12704 11.9468 7.93017 11.651 7.81871C11.4854 7.76119 11.3107 7.73402 11.1354 7.7385ZM18.9271 7.93329H18.9771C19.0423 7.93538 19.1014 7.94232 19.1541 7.95413C19.202 7.96376 19.2479 7.98174 19.2896 8.00725C19.3085 8.01842 19.3249 8.03348 19.3377 8.05143C19.3504 8.06938 19.3592 8.08982 19.3635 8.11142V8.11975C19.3662 8.16553 19.3538 8.21093 19.3281 8.24892C19.299 8.30144 19.2625 8.34951 19.2198 8.39163C19.1188 8.49875 18.9857 8.57006 18.8406 8.59475C18.6983 8.6116 18.5548 8.57645 18.4364 8.49579C18.3888 8.46432 18.3457 8.42647 18.3083 8.38329C18.2767 8.34957 18.2551 8.30774 18.2458 8.26246C18.2435 8.24018 18.2461 8.21768 18.2533 8.19647C18.2605 8.17526 18.2721 8.15585 18.2875 8.13954C18.3208 8.10459 18.3599 8.07568 18.4031 8.05413C18.5681 7.97837 18.7466 7.93657 18.9281 7.93121L18.9271 7.93329ZM11.2312 8.09371C11.2833 8.09371 11.3378 8.09788 11.3948 8.10621C11.5448 8.12704 11.6791 8.16558 11.7812 8.22288C11.8312 8.24857 11.875 8.28225 11.9125 8.32392C11.9319 8.34683 11.9465 8.37218 11.9562 8.39996C11.9659 8.42774 11.9691 8.45656 11.9656 8.48642C11.9561 8.54165 11.9304 8.5928 11.8916 8.63329C11.8513 8.68182 11.8039 8.72396 11.751 8.75829C11.6217 8.84639 11.4647 8.88452 11.3093 8.86558C11.1517 8.84014 11.0068 8.76365 10.8968 8.64788C10.8511 8.60125 10.8119 8.5487 10.7802 8.49163C10.7477 8.44168 10.7334 8.38212 10.7396 8.32288C10.7541 8.21871 10.8427 8.16663 10.9271 8.13538C11.0246 8.10443 11.127 8.09172 11.2291 8.09788L11.2312 8.09371ZM20.1479 15.1062H20.1448C20 15.1583 19.8812 15.1791 19.7802 15.2208C19.6795 15.2581 19.5961 15.3312 19.5458 15.426C19.4833 15.5354 19.4312 15.7302 19.4468 16.0614C19.4917 16.091 19.5409 16.1135 19.5927 16.1281C19.7604 16.1781 20.0427 16.2114 20.3583 16.2062C20.9854 16.1989 21.7583 16.0573 22.1687 15.8718C22.5052 15.7198 22.8177 15.5218 23.0968 15.2843C21.725 15.5593 20.951 15.4864 20.475 15.2958C20.3576 15.2479 20.2475 15.1848 20.1479 15.1062ZM12.2437 15.1948H12.2229C12.1708 15.1989 12.0948 15.2156 11.9489 15.3739C11.6052 15.7468 11.4864 15.9802 11.2031 16.1989C10.9218 16.4177 10.5541 16.5333 9.82081 16.6791C9.58851 16.725 9.45622 16.776 9.36664 16.8166C9.39581 16.8395 9.39268 16.8458 9.43539 16.8677C9.54268 16.925 9.68122 16.975 9.79164 17.0031C10.1073 17.0791 10.625 17.1687 11.1656 17.0791C11.7062 16.9895 12.2677 16.7385 12.7468 16.0864C12.8302 15.9739 12.8385 15.8073 12.7708 15.6281C12.701 15.451 12.551 15.2968 12.4448 15.2531C12.3814 15.2232 12.3134 15.2042 12.2437 15.1968V15.1948Z" fill="#F7F1D7"/>
</svg>
